<?xml version="1.0" encoding="UTF-8"?>
<svg version="1.1" xmlns="http://www.w3.org/2000/svg" width="1024" height="1024">
<path d="M0 0 C4.72850829 4.55212766 4.70866203 12.14446448 4.86550903 18.35171509 C4.87121525 20.23138097 4.86619981 22.11110137 4.85205078 23.99072266 C4.85234283 25.0260614 4.85263489 26.06140015 4.85293579 27.12811279 C4.85155392 30.51518437 4.83604685 33.90202984 4.8203125 37.2890625 C4.81657831 39.6513151 4.81373325 42.01356926 4.81173706 44.37582397 C4.80413262 50.56699973 4.78451168 56.75808035 4.7623291 62.94921875 C4.74180176 69.27733066 4.73272065 75.60545808 4.72265625 81.93359375 C4.70126265 94.33077076 4.66716546 106.72787744 4.625 119.125 C5.51118515 119.25981277 6.3973703 119.39462555 7.31040955 119.53352356 C8.47633133 119.71171127 9.64225311 119.88989899 10.84350586 120.07348633 C12.57497108 120.33758049 12.57497108 120.33758049 14.34141541 120.60700989 C46.64156982 125.70240491 76.24850684 139.07178432 100.015625 161.671875 C102.06227744 163.5959734 104.12079196 165.37565505 106.3125 167.125 C133.77041221 190.47085772 147.94449397 229.62399725 152.625 264.125 C152.625 265.445 152.625 266.765 152.625 268.125 C153.25853205 268.12131283 153.89206409 268.11762566 154.54479408 268.11382675 C169.96879665 268.02544196 185.39271098 267.95927411 200.81690407 267.91775131 C208.27597785 267.89713681 215.73488246 267.86903773 223.19384766 267.82324219 C229.69602713 267.78334006 236.19808408 267.75755909 242.70038259 267.74864602 C246.1425178 267.74343689 249.58430249 267.73121745 253.02632523 267.70207977 C256.87129475 267.66979585 260.71592314 267.66904277 264.56103516 267.67089844 C266.26791504 267.64932678 266.26791504 267.64932678 268.00927734 267.62731934 C274.18946337 267.6596345 277.94344254 267.9393949 282.625 272.125 C285.21144464 275.5344043 284.99003115 278.9636449 284.625 283.125 C283.30143646 286.36037755 282.13758684 287.77460851 279.256073 289.74433899 C274.03321842 291.73025105 269.19478915 291.51854111 263.65283203 291.46557617 C262.45226669 291.46601425 261.25170135 291.46645233 260.01475525 291.46690369 C256.73613448 291.46517626 253.45790174 291.45016855 250.17935801 291.42918181 C246.74807845 291.41038176 243.31679064 291.40866196 239.88546753 291.40510559 C233.39384749 291.39579485 226.90237968 291.37119437 220.41082656 291.34105712 C213.01786291 291.30748274 205.62489185 291.29101949 198.23187089 291.27597082 C183.02949372 291.24464384 167.8272678 291.19129551 152.625 291.125 C152.625 295.085 152.625 299.045 152.625 303.125 C151.965 303.125 151.305 303.125 150.625 303.125 C150.5825415 303.73158447 150.54008301 304.33816895 150.49633789 304.96313477 C149.97516408 311.23348835 148.82904385 317.03045523 147.0625 323.0625 C146.79856445 323.96709961 146.53462891 324.87169922 146.26269531 325.80371094 C140.1168308 346.18808699 130.86843459 365.16427188 116.625 381.125 C115.91859375 381.9396875 115.2121875 382.754375 114.484375 383.59375 C112.23936889 386.14562745 109.94433524 388.6405341 107.625 391.125 C106.76648438 392.06085938 105.90796875 392.99671875 105.0234375 393.9609375 C84.68196502 415.58314286 57.31527859 429.0182876 28.75 436.0625 C27.95561523 436.26198242 27.16123047 436.46146484 26.34277344 436.66699219 C21.18110466 437.84650184 16.0709949 438.36660499 10.79248047 438.68188477 C9.75534157 438.74726818 9.75534157 438.74726818 8.69725037 438.81397247 C7.00665789 438.92018795 5.31584892 439.02294804 3.625 439.125 C3.64379211 440.5605574 3.64379211 440.5605574 3.66296387 442.02511597 C3.78245681 451.17043815 3.9001313 460.31578229 4.01615143 469.46114922 C4.07581279 474.15965816 4.1360532 478.85815799 4.19775391 483.55664062 C4.66719184 519.37585719 4.66719184 519.37585719 4.71875 535.1328125 C4.7252356 536.12723358 4.73172119 537.12165466 4.73840332 538.14620972 C4.74891675 554.19828558 4.74891675 554.19828558 1.875 559.125 C-1.12201494 561.78901328 -3.29428307 563.20117268 -7.40234375 563.05078125 C-10.24553421 562.73715626 -12.79851049 562.41324475 -15.375 561.125 C-15.375 560.465 -15.375 559.805 -15.375 559.125 C-16.035 559.125 -16.695 559.125 -17.375 559.125 C-19.1731562 556.03116168 -19.62322095 553.80308071 -19.61550903 550.24017334 C-19.61963303 548.76786255 -19.61963303 548.76786255 -19.62384033 547.26580811 C-19.61664978 546.19550354 -19.60945923 545.12519897 -19.60205078 544.02246094 C-19.60234283 542.89046265 -19.60263489 541.75846436 -19.60293579 540.59216309 C-19.60154165 536.84782261 -19.58597622 533.10368074 -19.5703125 529.359375 C-19.56658268 526.76434437 -19.56373556 524.16931233 -19.56173706 521.57427979 C-19.55487913 515.4403298 -19.53911368 509.30646187 -19.51903808 503.17254281 C-19.49667615 496.18831246 -19.48568492 489.20407869 -19.47564721 482.21982145 C-19.45474734 467.85484266 -19.41957319 453.48992386 -19.375 439.125 C-22.35831976 439.14198732 -22.35831976 439.14198732 -25.34163952 439.15897465 C-56.45908491 438.63904508 -89.44913526 421.15219218 -112.375 401.125 C-112.86742187 400.69960938 -113.35984375 400.27421875 -113.8671875 399.8359375 C-121.14625364 393.5175603 -127.54378106 386.8275853 -133.375 379.125 C-134.55835938 377.60712891 -134.55835938 377.60712891 -135.765625 376.05859375 C-143.29898307 366.14557555 -148.82808671 355.2364119 -154.375 344.125 C-154.73078125 343.45484863 -155.0865625 342.78469727 -155.453125 342.09423828 C-156.38507442 340.1034798 -156.88573002 338.26261268 -157.375 336.125 C-157.79704309 334.81609836 -158.23262672 333.5115068 -158.6796875 332.2109375 C-161.42436374 324.03208254 -163.84109309 315.96111689 -165.25 307.4375 C-165.36972168 306.72062012 -165.48944336 306.00374023 -165.61279297 305.26513672 C-166.3349765 300.50362156 -166.38905191 295.94017727 -166.375 291.125 C-167.00853205 291.12776538 -167.64206409 291.13053076 -168.29479408 291.13337994 C-183.71881156 291.19966859 -199.14277941 291.24929456 -214.56690407 291.28043652 C-222.02593734 291.29589731 -229.48487546 291.31697167 -236.94384766 291.35131836 C-243.44602662 291.38124495 -249.94813666 291.40058074 -256.45038259 291.40726548 C-259.89245028 291.41117225 -263.3343208 291.42033703 -266.77632523 291.44219017 C-270.62126578 291.46640293 -274.46601445 291.46696789 -278.31103516 291.46557617 C-279.44895508 291.476362 -280.586875 291.48714783 -281.75927734 291.4982605 C-288.37409149 291.47231968 -293.06615074 290.99266936 -298.25 286.5 C-300.03282274 282.73626311 -300.15044474 279.19960964 -299.375 275.125 C-297.65595248 272.05618184 -295.56785833 269.72142916 -292.375 268.125 C-290.71511753 268.0320882 -289.05148753 268.00307967 -287.38900757 268.00474548 C-285.80722969 268.00268349 -285.80722969 268.00268349 -284.1934967 268.00057983 C-283.03184494 268.00417511 -281.87019318 268.00777039 -280.67333984 268.01147461 C-279.45385147 268.01132858 -278.2343631 268.01118256 -276.97792053 268.0110321 C-273.62894819 268.01161045 -270.28003707 268.01663454 -266.93107557 268.02360606 C-263.4330256 268.02984652 -259.93497485 268.03044395 -256.43692017 268.03163147 C-249.81065139 268.03474274 -243.18439906 268.04295338 -236.55813754 268.05298096 C-229.01531071 268.06414843 -221.4724831 268.06965415 -213.92965007 268.07467639 C-198.41142384 268.08513616 -182.89321404 268.10273166 -167.375 268.125 C-167.29557663 267.53892471 -167.21615326 266.95284943 -167.13432312 266.34901428 C-166.76456165 263.63960149 -166.38817311 260.9311469 -166.01171875 258.22265625 C-165.82458313 256.84043884 -165.82458313 256.84043884 -165.63366699 255.43029785 C-160.06371931 215.63621326 -138.58378783 177.16645978 -106.375 152.75 C-105.63588379 152.18909668 -104.89676758 151.62819336 -104.13525391 151.05029297 C-80.21600022 133.17605914 -52.19716127 122.07071796 -22.375 119.125 C-21.385 119.455 -20.395 119.785 -19.375 120.125 C-19.37868717 119.54300528 -19.38237434 118.96101055 -19.38617325 118.36137962 C-19.47457524 104.18918179 -19.54073429 90.01702537 -19.58224869 75.84461021 C-19.60285927 68.99086978 -19.63095073 62.13731358 -19.67675781 55.28369141 C-19.72093924 48.6701359 -19.74413508 42.05672154 -19.75450897 35.44301224 C-19.76190231 32.91921602 -19.77633962 30.39543033 -19.79792023 27.87171555 C-19.82693766 24.33791171 -19.83095653 20.80489981 -19.82910156 17.27099609 C-19.84348267 16.22658356 -19.85786377 15.18217102 -19.87268066 14.10610962 C-19.8386637 8.12099267 -19.35283751 4.69219215 -15.375 0.125 C-10.65984875 -3.57976169 -4.86758389 -2.70421327 0 0 Z M-20.375 162.125 C-19.375 165.125 -19.375 165.125 -19.375 165.125 Z M-22.375 162.125 C-52.99620456 166.76704431 -78.14853753 181.96919568 -97.73828125 206.02734375 C-99.38936266 208.34471522 -100.90715288 210.68837379 -102.375 213.125 C-102.86742187 213.88425781 -103.35984375 214.64351562 -103.8671875 215.42578125 C-112.75296737 229.49109602 -122.6270137 249.05208595 -121.375 266.125 C-119.14339529 268.35660471 -117.92084078 268.66721193 -114.9375 269.5 C-112.08961395 270.41424913 -110.57948224 270.9332979 -108.375 273 C-106.42143268 277.15133056 -106.12599046 279.22234041 -107.375 283.75 C-109.88380821 287.98361385 -111.72746271 288.70710727 -116.375 290.125 C-118.37171053 290.47750271 -120.37138355 290.81414272 -122.375 291.125 C-116.39106796 325.42314704 -99.55989838 354.89715872 -70.8125 375.25 C-60.08878878 382.09051167 -48.43270522 386.84724484 -36.1875 390.1875 C-35.41011475 390.40365967 -34.63272949 390.61981934 -33.83178711 390.8425293 C-28.95654674 392.07258181 -25.30105931 392.16240852 -20.375 391.125 C-20.19324219 390.58230469 -20.01148438 390.03960938 -19.82421875 389.48046875 C-19.57285156 388.76503906 -19.32148438 388.04960938 -19.0625 387.3125 C-18.81886719 386.60480469 -18.57523437 385.89710938 -18.32421875 385.16796875 C-16.94447086 382.19838791 -15.28869039 380.5818452 -12.375 379.125 C-10.3515625 378.95703125 -10.3515625 378.95703125 -8 378.9375 C-7.22914063 378.92332031 -6.45828125 378.90914062 -5.6640625 378.89453125 C-3.08751912 379.15394432 -1.55074327 379.73159846 0.625 381.125 C3.08323172 384.81234758 3.63742616 387.82199971 4.625 392.125 C20.88461525 390.66157119 20.88461525 390.66157119 35.625 384.125 C37.2028125 383.7228125 37.2028125 383.7228125 38.8125 383.3125 C42.66322488 382.11309389 45.41141965 380.56095592 48.73046875 378.34375 C50.625 377.125 50.625 377.125 52.53125 376.19921875 C76.77811876 363.7591275 93.799583 337.56929498 102.26171875 312.453125 C104.47723359 305.43404013 106.22258262 298.50265195 106.625 291.125 C105.79355469 290.95484375 104.96210937 290.7846875 104.10546875 290.609375 C102.47544922 290.24585938 102.47544922 290.24585938 100.8125 289.875 C99.73355469 289.64296875 98.65460938 289.4109375 97.54296875 289.171875 C94.27815094 288.00056151 93.32476674 287.0868009 91.625 284.125 C90.30905515 280.64714577 90.62383812 279.12896405 91.6875 275.5 C93.97315657 271.51853372 95.33362586 270.61047567 99.625 269.125 C103.5 268.4375 103.5 268.4375 106.625 268.125 C106.66754356 266.12545254 106.66580783 264.12458364 106.625 262.125 C106.295 261.795 105.965 261.465 105.625 261.125 C105.49996094 259.82433594 105.37492188 258.52367187 105.24609375 257.18359375 C103.15635908 236.86784303 92.07563973 217.08694756 78.625 202.125 C77.71621094 201.03832031 77.71621094 201.03832031 76.7890625 199.9296875 C72.78688002 195.16690925 68.4394351 191.0589742 63.625 187.125 C62.75488281 186.40570313 62.75488281 186.40570313 61.8671875 185.671875 C45.26728896 172.59316706 24.93362598 163.12775887 3.625 162.125 C3.61082031 163.00542969 3.59664062 163.88585937 3.58203125 164.79296875 C3.19459977 174.22744885 3.19459977 174.22744885 0.5625 178.375 C-3.11662498 180.56681914 -6.07921601 181.57055098 -10.375 181.125 C-14.17060358 179.15690926 -16.0038722 177.6816917 -18.375 174.125 C-18.71875 172.15234375 -18.71875 172.15234375 -18.875 170.0625 C-18.96661885 166.12511598 -18.96661885 166.12511598 -21.375 164.125 C-21.87 163.135 -21.87 163.135 -22.375 162.125 Z M-122.375 266.125 C-122.375 266.785 -122.375 267.445 -122.375 268.125 C-121.715 267.795 -121.055 267.465 -120.375 267.125 C-121.035 266.795 -121.695 266.465 -122.375 266.125 Z " fill="#FE911A" transform="translate(519.375,224.875)"/>
<path d="M0 0 C1.07113541 -0.01260864 2.14227081 -0.02521729 3.24586487 -0.03820801 C4.39699265 -0.03011108 5.54812042 -0.02201416 6.73413086 -0.01367188 C7.91994247 -0.01749878 9.10575409 -0.02132568 10.32749939 -0.02526855 C12.83325042 -0.02798977 15.33902976 -0.02061411 17.84472656 -0.00390625 C21.68805977 0.01751728 25.52952742 -0.00371276 29.37280273 -0.02929688 C31.80574958 -0.02665401 34.23869527 -0.02152989 36.67163086 -0.01367188 C37.82478287 -0.0217688 38.97793488 -0.02986572 40.16603088 -0.03820801 C41.23401413 -0.02559937 42.30199738 -0.01299072 43.40234375 0 C44.81321007 0.00477356 44.81321007 0.00477356 46.25257874 0.00964355 C48.63647461 0.51757812 48.63647461 0.51757812 50.4594574 2.37316895 C55.94197979 12.36178358 45.7459314 36.14235045 42.85131836 46.26269531 C29.28909589 92.0096392 0.93165237 136.58669048 -36.67211914 166.38085938 C-38.43980042 167.78422898 -40.18334563 169.21865707 -41.89868164 170.68554688 C-54.4340023 181.36798454 -68.80223867 189.8903868 -83.36352539 197.51757812 C-84.19029785 197.95070313 -85.01707031 198.38382813 -85.86889648 198.83007812 C-111.24045361 211.93227964 -140.46540374 222.90744504 -169.36352539 223.51757812 C-173.20814805 218.70465189 -172.78263432 213.97427344 -172.72680664 208.10742188 C-172.72730515 207.10296524 -172.72780365 206.09850861 -172.72831726 205.06361389 C-172.72598112 202.94465146 -172.71627978 200.82568602 -172.69970703 198.70678711 C-172.67608401 195.46312677 -172.67915361 192.2202872 -172.68579102 188.9765625 C-172.68021495 186.91601072 -172.67310552 184.85546241 -172.66430664 182.79492188 C-172.66521805 181.82505844 -172.66612946 180.85519501 -172.66706848 179.85594177 C-172.65753647 178.95142776 -172.64800446 178.04691376 -172.63818359 177.11499023 C-172.6335762 176.32176865 -172.62896881 175.52854706 -172.6242218 174.71128845 C-172.32902396 172.22725523 -171.70125443 170.62529835 -170.36352539 168.51757812 C-168.02758789 167.46289062 -168.02758789 167.46289062 -164.98852539 166.64257812 C-163.82192383 166.31128906 -162.65532227 165.98 -161.45336914 165.63867188 C-160.80352051 165.46062012 -160.15367187 165.28256836 -159.48413086 165.09912109 C-147.38012846 161.77978725 -135.74828028 158.1408363 -124.35571289 152.83789062 C-121.36352539 151.51757812 -121.36352539 151.51757812 -119.36352539 151.51757812 C-119.03352539 150.85757813 -118.70352539 150.19757813 -118.36352539 149.51757812 C-115.94257622 148.24903649 -113.52099695 147.05772798 -111.05102539 145.89257812 C-93.88885642 137.53352503 -79.08704279 125.66198733 -65.36352539 112.51757812 C-64.85934082 112.040625 -64.35515625 111.56367187 -63.83569336 111.07226562 C-52.05318271 99.88430249 -42.77694232 87.38126559 -34.36352539 73.51757812 C-33.9884082 72.90575684 -33.61329102 72.29393555 -33.22680664 71.66357422 C-21.36008098 52.12701521 -13.52281287 30.41971338 -10.23461914 7.81054688 C-8.7061063 2.03235707 -5.87829562 0.01987196 0 0 Z " fill="#FE921A" transform="translate(711.363525390625,530.482421875)"/>
<path d="M0 0 C1.07128647 -0.0127597 2.14257294 -0.02551941 3.24632263 -0.03866577 C4.40777298 -0.04089142 5.56922333 -0.04311707 6.76586914 -0.04541016 C8.54883141 -0.05539536 8.54883141 -0.05539536 10.36781311 -0.06558228 C12.88549244 -0.07572259 15.40319871 -0.08039887 17.92089844 -0.08007812 C21.78177983 -0.08445086 25.64151835 -0.12075709 29.50219727 -0.15869141 C31.94425063 -0.1645592 34.38630945 -0.16852884 36.82836914 -0.17041016 C37.98779526 -0.18478119 39.14722137 -0.19915222 40.34178162 -0.21395874 C41.41622025 -0.20780548 42.49065887 -0.20165222 43.59765625 -0.1953125 C44.5442662 -0.19816254 45.49087616 -0.20101257 46.46617126 -0.20394897 C48.86352539 0.29052734 48.86352539 0.29052734 50.64862061 2.17840576 C51.99418085 4.51767289 52.54164595 6.43072577 53.03930664 9.07958984 C53.22396484 10.01182373 53.40862305 10.94405762 53.59887695 11.90454102 C53.88456543 13.39497925 53.88456543 13.39497925 54.17602539 14.91552734 C63.43201722 59.82253777 88.6287229 100.23798019 125.18969727 128.01367188 C126.62844474 129.11119949 128.05221528 130.22831113 129.47290039 131.34912109 C149.73394272 146.86753091 173.34422631 156.77123174 197.69165039 163.78271484 C198.55725586 164.03633789 199.42286133 164.28996094 200.31469727 164.55126953 C202.01394086 165.04411528 203.71856436 165.51877651 205.42797852 165.97509766 C206.22655273 166.20551758 207.02512695 166.4359375 207.84790039 166.67333984 C208.55140625 166.86557129 209.25491211 167.05780273 209.97973633 167.25585938 C212.84459635 168.82937892 213.58542414 170.27132292 214.86352539 173.29052734 C215.27946959 176.52271373 215.26026646 179.7190792 215.22680664 182.97412109 C215.2275544 184.37380882 215.2275544 184.37380882 215.22831726 185.80177307 C215.22598152 187.77110935 215.21628255 189.74044889 215.19970703 191.7097168 C215.17613434 194.71414072 215.17914772 197.71767513 215.18579102 200.72216797 C215.18021301 202.63949094 215.17310236 204.55681019 215.16430664 206.47412109 C215.16521805 207.36804062 215.16612946 208.26196014 215.16706848 209.18296814 C215.1137475 213.90588884 214.84394942 217.90614566 212.86352539 222.29052734 C201.63625555 227.90416226 179.14682789 218.11100886 167.85571289 214.36865234 C131.49761698 201.95720593 99.02299625 183.55692453 70.86352539 157.29052734 C69.8513761 156.38834326 68.83692504 155.4887369 67.82055664 154.59130859 C67.3074292 154.13530273 66.79430176 153.67929687 66.265625 153.20947266 C64.81798398 151.92360639 63.36816095 150.64019787 61.91821289 149.35693359 C59.86352539 147.29052734 59.86352539 147.29052734 59.86352539 145.29052734 C59.20352539 145.29052734 58.54352539 145.29052734 57.86352539 145.29052734 C56.46753143 143.76215465 55.1476489 142.16402635 53.86352539 140.54052734 C53.05399414 139.52345703 52.24446289 138.50638672 51.41040039 137.45849609 C50.98823242 136.92788574 50.56606445 136.39727539 50.13110352 135.85058594 C48.9551776 134.40332735 47.73138922 132.99531857 46.50415039 131.59130859 C20.26178271 101.53264888 3.65129435 62.70944035 -5.07397461 24.10302734 C-5.28578369 23.18320068 -5.49759277 22.26337402 -5.71582031 21.31567383 C-7.0485909 15.05159526 -7.90819425 8.69150915 -7.13647461 2.29052734 C-4.56808534 -0.27786193 -3.56947063 0.02877119 0 0 Z " fill="#FE921B" transform="translate(269.136474609375,530.70947265625)"/>
<path d="M0 0 C1.07314453 0.08024414 1.07314453 0.08024414 2.16796875 0.16210938 C5.79602707 0.4842267 7.79672151 0.88531434 10.875 2.9375 C12.42244303 3.42511983 13.98992617 3.85088628 15.56640625 4.234375 C16.50154053 4.46729248 17.4366748 4.70020996 18.40014648 4.94018555 C19.40247314 5.18679932 20.4047998 5.43341309 21.4375 5.6875 C56.51420687 14.65478482 88.37980038 30.02157274 116.4765625 52.984375 C118.20414086 54.39119777 119.95153243 55.77381445 121.7109375 57.140625 C122.63132812 57.85734375 123.55171875 58.5740625 124.5 59.3125 C125.33789062 59.95960938 126.17578125 60.60671875 127.0390625 61.2734375 C127.94785156 62.09714844 127.94785156 62.09714844 128.875 62.9375 C128.875 63.5975 128.875 64.2575 128.875 64.9375 C129.76795776 65.34367554 129.76795776 65.34367554 130.67895508 65.75805664 C132.84903559 66.92355513 134.27484624 68.07942966 136.01171875 69.80859375 C136.58438477 70.37715088 137.15705078 70.94570801 137.74707031 71.53149414 C138.34616211 72.13985107 138.94525391 72.74820801 139.5625 73.375 C140.18608398 74.00462646 140.80966797 74.63425293 141.45214844 75.28295898 C146.62320407 80.56436435 151.35028454 86.09169973 155.875 91.9375 C156.68453125 92.95328125 157.4940625 93.9690625 158.328125 95.015625 C164.386156 102.66744515 169.77965575 110.61817689 174.875 118.9375 C175.48625732 119.9277417 175.48625732 119.9277417 176.10986328 120.93798828 C182.45985523 131.27535494 188.05627667 141.8015169 192.875 152.9375 C193.1750293 153.62859863 193.47505859 154.31969727 193.78417969 155.03173828 C200.99100932 171.90923733 205.81565547 189.72105703 209.4375 207.6875 C209.61821045 208.55028564 209.7989209 209.41307129 209.98510742 210.30200195 C210.81675804 214.73524705 211.34881673 217.89666753 208.875 221.9375 C206.5238157 223.11309215 205.04782086 223.09266463 202.42529297 223.14282227 C201.50448944 223.16276749 200.58368591 223.18271271 199.63497925 223.20326233 C198.14117233 223.22833107 198.14117233 223.22833107 196.6171875 223.25390625 C195.08990524 223.2850779 195.08990524 223.2850779 193.5317688 223.31687927 C190.27124945 223.38239466 187.01064794 223.44126902 183.75 223.5 C181.54296017 223.54318332 179.33592872 223.58679755 177.12890625 223.63085938 C171.71102499 223.73807805 166.29306154 223.83984074 160.875 223.9375 C160.875 224.2675 160.875 224.5975 160.875 224.9375 C158.895 224.9375 156.915 224.9375 154.875 224.9375 C154.875 223.9475 154.875 222.9575 154.875 221.9375 C153.885 221.6075 152.895 221.2775 151.875 220.9375 C151.13671875 218.8046875 151.13671875 218.8046875 150.5625 215.8125 C150.30984375 214.63042969 150.0571875 213.44835937 149.796875 212.23046875 C149.5812793 211.21605713 149.5812793 211.21605713 149.36132812 210.18115234 C137.99465749 157.74154236 109.32942794 112.2511664 63.875 82.9375 C43.08512803 69.69667314 19.93018499 59.41416671 -4.52929688 55.44238281 C-7.674458 54.86270363 -9.68011987 54.45080344 -11.81396484 51.98876953 C-13.68053225 47.64456851 -13.59272568 43.6836199 -13.59375 39 C-13.60136353 38.04230713 -13.60897705 37.08461426 -13.61682129 36.09790039 C-13.62760487 34.07733767 -13.63048249 32.05671929 -13.62597656 30.03613281 C-13.62500319 26.94762295 -13.66666644 23.86158956 -13.7109375 20.7734375 C-13.71614402 18.80729684 -13.7188327 16.84114756 -13.71875 14.875 C-13.73514526 13.95404541 -13.75154053 13.03309082 -13.76843262 12.08422852 C-13.71997679 7.58308078 -13.57883283 5.55064274 -10.83056641 1.83764648 C-7.18151479 -0.72511915 -4.24044764 -0.48274677 0 0 Z " fill="#FE921A" transform="translate(552.125,255.0625)"/>
<path d="M0 0 C2.39969885 2.39969885 2.2833826 3.05307673 2.4140625 6.33984375 C2.45289551 7.22921631 2.49172852 8.11858887 2.53173828 9.03491211 C2.56251465 9.99276611 2.59329102 10.95062012 2.625 11.9375 C2.66222168 12.9179126 2.69944336 13.8983252 2.73779297 14.90844727 C2.96546029 21.41689983 3.09764545 27.92516411 3.125 34.4375 C3.12967285 35.19861084 3.1343457 35.95972168 3.13916016 36.74389648 C3.10489471 48.56415806 3.10489471 48.56415806 0.7578125 51.61425781 C-1.40921347 53.32259662 -3.11112747 53.74297151 -5.8046875 54.32421875 C-6.77019531 54.54384277 -7.73570312 54.7634668 -8.73046875 54.98974609 C-9.76816406 55.22000488 -10.80585938 55.45026367 -11.875 55.6875 C-29.56385206 59.87290377 -46.03623914 66.33447072 -62 75 C-63.56427734 75.84498047 -63.56427734 75.84498047 -65.16015625 76.70703125 C-78.70968477 84.32975678 -90.90466355 93.57472262 -101.68359375 104.79296875 C-104 107 -104 107 -106 107 C-106.22945313 107.55300781 -106.45890625 108.10601562 -106.6953125 108.67578125 C-108.36424405 111.64887788 -110.49619322 113.74318984 -112.875 116.1875 C-123.39585855 127.34955297 -131.96223886 140.4013191 -139 154 C-139.3619043 154.69786621 -139.72380859 155.39573242 -140.09667969 156.11474609 C-148.83656917 173.21080442 -154.66568267 190.71398363 -158.40332031 209.53808594 C-158.58604492 210.45493164 -158.76876953 211.37177734 -158.95703125 212.31640625 C-159.11147705 213.12537354 -159.26592285 213.93434082 -159.42504883 214.76782227 C-160.02188032 217.08494766 -160.77128789 218.94818381 -162 221 C-164.48450633 222.24225317 -166.17333046 222.14028353 -168.95288086 222.16113281 C-169.98412582 222.17074036 -171.01537079 222.1803479 -172.0778656 222.19024658 C-173.19556839 222.19449646 -174.31327118 222.19874634 -175.46484375 222.203125 C-176.60909317 222.20882507 -177.75334259 222.21452515 -178.93226624 222.22039795 C-181.35579501 222.22985619 -183.77933669 222.23638519 -186.20288086 222.24023438 C-189.91868372 222.2499508 -193.63393617 222.28097158 -197.34960938 222.3125 C-199.70051754 222.31902872 -202.05142967 222.3242797 -204.40234375 222.328125 C-205.51802231 222.3404718 -206.63370087 222.3528186 -207.78318787 222.36553955 C-208.81758499 222.36253845 -209.85198212 222.35953735 -210.91772461 222.35644531 C-212.28434486 222.36191376 -212.28434486 222.36191376 -213.67857361 222.36749268 C-216 222 -216 222 -217.79957581 220.67254639 C-220.11114554 217.45184522 -219.22804631 213.65314379 -218.70996094 209.89746094 C-218.31318182 207.54475762 -217.85596356 205.21193612 -217.375 202.875 C-217.20258789 202.01914307 -217.03017578 201.16328613 -216.85253906 200.28149414 C-215.25485086 192.64955633 -213.17725575 185.18055086 -210.93115234 177.71630859 C-210.68059082 176.8805127 -210.4300293 176.0447168 -210.171875 175.18359375 C-209.8330127 174.07842407 -209.8330127 174.07842407 -209.48730469 172.95092773 C-208.87883218 170.85004821 -208.87883218 170.85004821 -209 168 C-208.34 168 -207.68 168 -207 168 C-206.79697266 167.195625 -206.79697266 167.195625 -206.58984375 166.375 C-200.88209755 145.59470244 -189.71702096 124.30079007 -177 107 C-176.56220215 106.39671875 -176.1244043 105.7934375 -175.67333984 105.171875 C-168.83955792 95.77340131 -161.66762206 86.73029286 -154 78 C-153.13246094 77.00871094 -152.26492188 76.01742187 -151.37109375 74.99609375 C-146.53523597 69.56959685 -141.57402529 64.65156335 -136 60 C-135.1028125 59.20335937 -134.205625 58.40671875 -133.28125 57.5859375 C-110.72912029 37.68592361 -83.24882924 21.65724641 -54.80981445 11.8503418 C-51.21050905 10.79763643 -51.21050905 10.79763643 -49 8 C-47.16379401 7.75617946 -45.32571679 7.52297151 -43.48291016 7.33544922 C-38.62864897 6.67962278 -33.92039159 5.29987667 -29.1875 4.0625 C-6.23667496 -1.91897691 -6.23667496 -1.91897691 0 0 Z " fill="#FE921A" transform="translate(481,256)"/>
<path d="M0 0 C13.5474608 11.63165826 21.30783447 26.94563474 23.1875 44.5625 C24.10674257 62.04725968 18.10202469 77.29693016 7.3125 90.875 C6.68601562 91.71160156 6.05953125 92.54820312 5.4140625 93.41015625 C-5.25465715 105.92309696 -20.77909636 111.49496206 -36.68359375 113.1953125 C-53.56296922 113.88239698 -69.53926816 107.05503148 -82.203125 96.2578125 C-85.27775376 93.30887611 -87.85845252 90.17345947 -90.34765625 86.72265625 C-91.69526405 84.76234951 -91.69526405 84.76234951 -93.6875 82.875 C-102.57927994 64.46321653 -105.51065695 46.13556777 -98.625 26.3125 C-91.62546705 9.40212392 -79.36742751 -2.5602558 -62.6875 -9.9375 C-41.17728579 -18.36418186 -18.1285653 -13.88517536 0 0 Z " fill="#FE911A" transform="translate(551.6875,456.125)"/>
<path d="M0 0 C1.80330533 3.60661066 2.46599103 6.08393425 3 10 C3.95029807 9.99446924 3.95029807 9.99446924 4.91979408 9.98882675 C20.34379665 9.90044196 35.76771098 9.83427411 51.19190407 9.79275131 C58.65097785 9.77213681 66.10988246 9.74403773 73.56884766 9.69824219 C80.07102713 9.65834006 86.57308408 9.63255909 93.07538259 9.62364602 C96.5175178 9.61843689 99.95930249 9.60621745 103.40132523 9.57707977 C107.24629475 9.54479585 111.09092314 9.54404277 114.93603516 9.54589844 C116.64291504 9.52432678 116.64291504 9.52432678 118.38427734 9.50231934 C124.56446337 9.5346345 128.31844254 9.8143949 133 14 C135.58644464 17.4094043 135.36503115 20.8386449 135 25 C133.67643646 28.23537755 132.51258684 29.64960851 129.631073 31.61933899 C124.40821842 33.60525105 119.56978915 33.39354111 114.02783203 33.34057617 C112.82726669 33.34101425 111.62670135 33.34145233 110.38975525 33.34190369 C107.11113448 33.34017626 103.83290174 33.32516855 100.55435801 33.30418181 C97.12307845 33.28538176 93.69179064 33.28366196 90.26046753 33.28010559 C83.76884749 33.27079485 77.27737968 33.24619437 70.78582656 33.21605712 C63.39286291 33.18248274 55.99989185 33.16601949 48.60687089 33.15097082 C33.40449589 33.11964384 18.2022632 33.0669024 3 33 C2.34 35.97 1.68 38.94 1 42 C0.67 42 0.34 42 0 42 C0 38.7 0 35.4 0 32 C-13.2 32 -26.4 32 -40 32 C-40.33 33.65 -40.66 35.3 -41 37 C-41.33 37 -41.66 37 -42 37 C-42 35.35 -42 33.7 -42 32 C-42.73605469 32.04640625 -43.47210937 32.0928125 -44.23046875 32.140625 C-52.15021924 32.43356161 -52.15021924 32.43356161 -56.0625 30.4375 C-58.58474512 27.26435291 -59.45395508 25.02708131 -60 21 C-59.10462822 17.41851288 -57.63175142 14.63175142 -55 12 C-51.9609375 11.5859375 -51.9609375 11.5859375 -48.375 11.375 C-47.18648437 11.30023438 -45.99796875 11.22546875 -44.7734375 11.1484375 C-43.85820313 11.09945313 -42.94296875 11.05046875 -42 11 C-42 8.03 -42 5.06 -42 2 C-40 6 -40 6 -40 11 C-26.8 11 -13.6 11 0 11 C0 7.37 0 3.74 0 0 Z " fill="#FB8314" transform="translate(669,483)"/>
<path d="M0 0 C0.33 0 0.66 0 1 0 C1 2.31 1 4.62 1 7 C1.66 5.02 2.32 3.04 3 1 C3.33 1 3.66 1 4 1 C4 2.98 4 4.96 4 7 C5.216875 7.04125 6.43375 7.0825 7.6875 7.125 C11.03393185 7.54033729 12.71021098 8.19516848 14.9375 10.75 C18 15.57575758 18 15.57575758 18 19 C15.81021898 25.45985401 15.81021898 25.45985401 12 28 C5.78658018 29.09139546 -0.33014096 29.13210857 -6.625 29.09765625 C-7.61250244 29.0962413 -8.60000488 29.09482635 -9.61743164 29.09336853 C-12.74498636 29.08780927 -15.87246723 29.07526446 -19 29.0625 C-21.13150938 29.05747973 -23.26301988 29.05291775 -25.39453125 29.04882812 C-30.596379 29.03785322 -35.79818422 29.02115612 -41 29 C-40.67 29.99 -40.34 30.98 -40 32 C-39.9314505 33.89470816 -39.91519628 35.7916834 -39.9375 37.6875 C-39.94652344 38.68136719 -39.95554687 39.67523437 -39.96484375 40.69921875 C-39.98224609 41.83810547 -39.98224609 41.83810547 -40 43 C-40.309375 42.360625 -40.61875 41.72125 -40.9375 41.0625 C-41.8345163 39.06389179 -41.8345163 39.06389179 -43 38 C-43.14115161 35.32941149 -43.04247107 32.67567762 -43 30 C-43.63353205 30.00276538 -44.26706409 30.00553076 -44.91979408 30.00837994 C-60.34381156 30.07466859 -75.76777941 30.12429456 -91.19190407 30.15543652 C-98.65093734 30.17089731 -106.10987546 30.19197167 -113.56884766 30.22631836 C-120.07102662 30.25624495 -126.57313666 30.27558074 -133.07538259 30.28226548 C-136.51745028 30.28617225 -139.9593208 30.29533703 -143.40132523 30.31719017 C-147.24626578 30.34140293 -151.09101445 30.34196789 -154.93603516 30.34057617 C-156.07395508 30.351362 -157.211875 30.36214783 -158.38427734 30.3732605 C-164.99909149 30.34731968 -169.69115074 29.86766936 -174.875 25.375 C-176.6199901 21.69113201 -176.97493316 17.96387299 -176 14 C-174.40492907 11.18540303 -173.57881393 9.80476225 -171 8 C-166.87143996 7.10865007 -162.79911401 7.24244649 -158.59057617 7.31884766 C-156.70216507 7.31753342 -156.70216507 7.31753342 -154.77560425 7.31619263 C-151.33127865 7.3144736 -147.88821102 7.3497053 -144.44417739 7.39163637 C-140.84210731 7.42918758 -137.24000722 7.43267213 -133.63777161 7.43978882 C-126.82008676 7.45842502 -120.00298035 7.50764457 -113.18555003 7.56788576 C-105.42266487 7.63498977 -97.65975184 7.66794953 -89.89664876 7.69805837 C-73.93076437 7.76074542 -57.96545683 7.86625558 -42 8 C-42 6.02 -42 4.04 -42 2 C-41.34 2 -40.68 2 -40 2 C-40.33 3.98 -40.66 5.96 -41 8 C-27.8 8 -14.6 8 -1 8 C-1 5.69 -1 3.38 -1 1 C-0.67 0.67 -0.34 0.34 0 0 Z " fill="#FB8213" transform="translate(396,486)"/>
<path d="M0 0 C2.35051897 2.0567041 2.75030363 2.67041147 3 5.75 C3.00820065 7.12497555 3.0074592 8.50002023 3 9.875 C2.71117455 13.5450271 2.71117455 13.5450271 4 15.75 C4.08902493 17.10845193 4.11760132 18.47115974 4.11352539 19.83251953 C4.11344986 20.67324005 4.11337433 21.51396057 4.11329651 22.38015747 C4.10813522 23.28853363 4.10297394 24.19690979 4.09765625 25.1328125 C4.0962413 26.06221649 4.09482635 26.99162048 4.09336853 27.94918823 C4.08776053 30.92449124 4.07520668 33.89971964 4.0625 36.875 C4.05748603 38.88932183 4.05292295 40.90364484 4.04882812 42.91796875 C4.0377885 47.86200802 4.02051849 52.80599135 4 57.75 C4.99 58.08 5.98 58.41 7 58.75 C6.01 58.75 5.02 58.75 4 58.75 C4.01252808 59.71956635 4.02505615 60.68913269 4.03796387 61.68807983 C4.15743407 70.95113177 4.27510989 80.21420511 4.39115143 89.47730064 C4.45082373 94.23634344 4.51106832 98.99537737 4.57275391 103.75439453 C4.71176018 114.50439479 4.84049811 125.25441879 4.95019531 136.00476074 C4.98093914 139.00945838 5.01514038 142.0140697 5.05371094 145.01867676 C5.09809085 148.65047099 5.12960751 152.28210176 5.15625 155.9140625 C5.1711145 156.92334808 5.185979 157.93263367 5.20129395 158.97250366 C5.22450212 164.59065416 4.60657097 169.35911465 3 174.75 C2.67 174.75 2.34 174.75 2 174.75 C2 136.8 2 98.85 2 59.75 C-4.27 59.75 -10.54 59.75 -17 59.75 C-17 97.7 -17 135.65 -17 174.75 C-17.33 174.75 -17.66 174.75 -18 174.75 C-18 136.47 -18 98.19 -18 58.75 C-21.3 58.75 -24.6 58.75 -28 58.75 C-28.66 58.09 -29.32 57.43 -30 56.75 C-26.04 56.75 -22.08 56.75 -18 56.75 C-18.33 42.23 -18.66 27.71 -19 12.75 C-18.67 12.75 -18.34 12.75 -18 12.75 C-18.061875 11.1721875 -18.061875 11.1721875 -18.125 9.5625 C-18.0066441 5.95264518 -17.77486902 3.85602079 -16 0.75 C-11.00073978 -2.35149332 -5.32936109 -2.22056712 0 0 Z " fill="#FB800F" transform="translate(519,604.25)"/>
<path d="M0 0 C0.33 0 0.66 0 1 0 C1 54.78 1 109.56 1 166 C0.67 166 0.34 166 0 166 C0 162.04 0 158.08 0 154 C-1.629375 154.495 -3.25875 154.99 -4.9375 155.5 C-10.16457175 156.9421843 -14.60189003 157.26548082 -20 157 C-19.505 156.01 -19.505 156.01 -19 155 C-16.36353841 154.35710444 -13.79418621 153.82992217 -11.125 153.375 C-10.02478516 153.17390625 -10.02478516 153.17390625 -8.90234375 152.96875 C-5.89693262 152.43226495 -3.05850122 152 0 152 C0 101.84 0 51.68 0 0 Z " fill="#FE7701" transform="translate(501,232)"/>
<path d="M0 0 C0.33 0 0.66 0 1 0 C2.6170572 35.75197939 3.19924877 71.22399164 2 107 C3.32 107.33 4.64 107.66 6 108 C4.35 108 2.7 108 1 108 C-0.1650995 105.669801 -0.12332151 104.33000001 -0.12025452 101.73532104 C-0.12162918 100.84067139 -0.12300385 99.94602173 -0.12442017 99.02426147 C-0.12082489 98.04027374 -0.11722961 97.05628601 -0.11352539 96.04248047 C-0.11367142 95.00830994 -0.11381744 93.9741394 -0.1139679 92.90863037 C-0.11326924 89.47812834 -0.10547901 86.04768009 -0.09765625 82.6171875 C-0.0957919 80.24350006 -0.09436808 77.86981223 -0.09336853 75.49612427 C-0.08954466 69.23910465 -0.07971547 62.98210813 -0.06866455 56.72509766 C-0.05844764 50.3440787 -0.05387031 43.96305602 -0.04882812 37.58203125 C-0.0380931 25.05467763 -0.02120961 12.52734004 0 0 Z " fill="#FE7E07" transform="translate(521,239)"/>
<path d="M0 0 C1.98 0.66 3.96 1.32 6 2 C6 2.33 6 2.66 6 3 C3.36 3.33 0.72 3.66 -2 4 C-1.67 19.18 -1.34 34.36 -1 50 C1.97 50.99 4.94 51.98 8 53 C8 53.33 8 53.66 8 54 C6.39815374 54.1352403 4.79303374 54.23210847 3.1875 54.3125 C2.29417969 54.37050781 1.40085937 54.42851562 0.48046875 54.48828125 C-2 54 -2 54 -3.62573242 52.09057617 C-5.56624718 47.72657256 -5.46771602 43.79028669 -5.46875 39.0625 C-5.47636353 38.10480713 -5.48397705 37.14711426 -5.49182129 36.16040039 C-5.50260487 34.13983767 -5.50548249 32.11921929 -5.50097656 30.09863281 C-5.50000319 27.01012295 -5.54166644 23.92408956 -5.5859375 20.8359375 C-5.59114402 18.86979684 -5.5938327 16.90364756 -5.59375 14.9375 C-5.61014526 14.01654541 -5.62654053 13.09559082 -5.64343262 12.14672852 C-5.56657434 5.00722672 -5.56657434 5.00722672 -2.46289062 1.87890625 C-1.65013672 1.25886719 -0.83738281 0.63882813 0 0 Z " fill="#FE921C" transform="translate(544,255)"/>
<path d="M0 0 C0.66 0 1.32 0 2 0 C2 16.5 2 33 2 50 C3.32 50.66 4.64 51.32 6 52 C4.25 52.75 4.25 52.75 2 53 C-0.11181641 51.66235352 -0.11181641 51.66235352 -2 49 C-2.58844951 45.55268067 -2.51230799 42.14163087 -2.4609375 38.65234375 C-2.46002106 37.64410049 -2.45910461 36.63585724 -2.4581604 35.59706116 C-2.45212361 33.46789841 -2.43637536 31.33874419 -2.41162109 29.2097168 C-2.37509663 25.94613456 -2.37060189 22.68368722 -2.37109375 19.41992188 C-2.3612632 17.35155266 -2.34960647 15.28319116 -2.3359375 13.21484375 C-2.33371185 12.23668198 -2.33148621 11.2585202 -2.32919312 10.25071716 C-2.31643341 9.34289993 -2.30367371 8.4350827 -2.29052734 7.49975586 C-2.28290375 6.70129745 -2.27528015 5.90283905 -2.26742554 5.08018494 C-2 3 -2 3 0 0 Z " fill="#FE8911" transform="translate(541,700)"/>
<path d="M0 0 C7.33228928 -0.07601651 14.66447707 -0.12858578 21.99707031 -0.16479492 C24.49190061 -0.17988855 26.98670435 -0.20036548 29.48144531 -0.22631836 C33.06582186 -0.2626754 36.64984782 -0.27972078 40.234375 -0.29296875 C41.35116638 -0.30845261 42.46795776 -0.32393646 43.61859131 -0.33988953 C44.65936829 -0.34011612 45.70014526 -0.34034271 46.77246094 -0.34057617 C47.68735291 -0.34723801 48.60224487 -0.35389984 49.54486084 -0.36076355 C52.50402461 0.07406249 53.87340985 0.91926361 56 3 C56.390625 5.91796875 56.390625 5.91796875 56.25 9.1875 C56.21390625 10.27417969 56.1778125 11.36085938 56.140625 12.48046875 C56.09421875 13.31191406 56.0478125 14.14335938 56 15 C54 13 54 13 52 3 C34.51 2.67 17.02 2.34 -1 2 C-0.67 1.34 -0.34 0.68 0 0 Z " fill="#FE8307" transform="translate(265,532)"/>
<path d="M0 0 C2.375 -0.125 2.375 -0.125 5 0 C7.39969885 2.39969885 7.2833826 3.05307673 7.4140625 6.33984375 C7.45289551 7.22921631 7.49172852 8.11858887 7.53173828 9.03491211 C7.56251465 9.99276611 7.59329102 10.95062012 7.625 11.9375 C7.66222168 12.9179126 7.69944336 13.8983252 7.73779297 14.90844727 C7.96546029 21.41689983 8.09764545 27.92516411 8.125 34.4375 C8.13200928 35.57916626 8.13200928 35.57916626 8.13916016 36.74389648 C8.12606523 41.2611415 7.73994188 45.54273106 7 50 C6.01 49.67 5.02 49.34 4 49 C4 33.82 4 18.64 4 3 C2.35 2.67 0.7 2.34 -1 2 C-0.67 1.34 -0.34 0.68 0 0 Z " fill="#FE870D" transform="translate(476,256)"/>
<path d="M0 0 C0.33 0 0.66 0 1 0 C1.00808685 0.81130875 1.01617371 1.62261749 1.02450562 2.45851135 C1.10261286 10.12358093 1.18995158 17.78846456 1.28752708 25.45330906 C1.3373634 29.39339779 1.38369398 33.33346136 1.421875 37.27368164 C1.45888855 41.07987149 1.50529088 44.88584403 1.55806351 48.69184685 C1.57652244 50.14017848 1.59166141 51.58855655 1.60334396 53.03695869 C1.62035319 55.07377254 1.6494207 57.11009784 1.68115234 59.14672852 C1.69447601 60.30366714 1.70779968 61.46060577 1.7215271 62.65260315 C2.02995862 66.36011897 2.7031576 69.51179193 4 73 C7.00594421 74.53146378 7.00594421 74.53146378 10 75 C10 75.66 10 76.32 10 77 C6.04 76.505 6.04 76.505 2 76 C2 75.34 2 74.68 2 74 C1.34 74 0.68 74 0 74 C-0.9738908 69.95974938 -1.09000009 66.24778349 -1.02172852 62.09838867 C-1.0073172 61.08779892 -1.0073172 61.08779892 -0.99261475 60.05679321 C-0.95979807 57.84373953 -0.91940075 55.63089412 -0.87890625 53.41796875 C-0.85458815 51.87812521 -0.83074545 50.33827409 -0.80735779 48.79841614 C-0.74468491 44.75582211 -0.67557118 40.71336308 -0.60510254 36.67089844 C-0.5342669 32.54172893 -0.46954124 28.4124641 -0.40429688 24.28320312 C-0.27550119 16.1886965 -0.13989904 8.0943223 0 0 Z " fill="#FD8A13" transform="translate(502,710)"/>
<path d="M0 0 C0.33 0 0.66 0 1 0 C1.93048898 7.0746702 2.15157617 13.99372782 2.125 21.125 C2.12886719 22.17042969 2.13273437 23.21585938 2.13671875 24.29296875 C2.12335119 34.86671167 2.12335119 34.86671167 1 40 C0.01 40.495 0.01 40.495 -1 41 C-1.02464705 35.32169922 -1.04283462 29.64342931 -1.05493164 23.96508789 C-1.05997256 22.03181415 -1.06680519 20.09854424 -1.07543945 18.1652832 C-1.08751565 15.39273128 -1.09323057 12.62022959 -1.09765625 9.84765625 C-1.10281754 8.97786636 -1.10797882 8.10807648 -1.11329651 7.21192932 C-1.11349185 5.14094186 -1.06208168 3.07005676 -1 1 C-0.67 0.67 -0.34 0.34 0 0 Z " fill="#FE860D" transform="translate(482,704)"/>
<path d="M0 0 C0.33 0 0.66 0 1 0 C1 16.83 1 33.66 1 51 C0.67 51 0.34 51 0 51 C0 47.04 0 43.08 0 39 C-1.629375 39.495 -3.25875 39.99 -4.9375 40.5 C-10.16457175 41.9421843 -14.60189003 42.26548082 -20 42 C-19.67 41.34 -19.34 40.68 -19 40 C-16.36353841 39.35710444 -13.79418621 38.82992217 -11.125 38.375 C-10.02478516 38.17390625 -10.02478516 38.17390625 -8.90234375 37.96875 C-5.89693262 37.43226495 -3.05850122 37 0 37 C0 24.79 0 12.58 0 0 Z " fill="#FB7C0B" transform="translate(501,347)"/>
<path d="M0 0 C0.33 0 0.66 0 1 0 C1.33 9.24 1.66 18.48 2 28 C4.97 28.99 7.94 29.98 11 31 C11 31.33 11 31.66 11 32 C9.37536158 32.05395478 7.75021459 32.09277195 6.125 32.125 C5.22007812 32.14820313 4.31515625 32.17140625 3.3828125 32.1953125 C1 32 1 32 -1 30 C-1.24291992 27.12670898 -1.24291992 27.12670898 -1.23046875 23.49609375 C-1.22853516 22.19865234 -1.22660156 20.90121094 -1.22460938 19.56445312 C-1.21840576 18.88777588 -1.21220215 18.21109863 -1.20581055 17.51391602 C-1.18754052 15.44209529 -1.18530095 13.37072103 -1.18554688 11.29882812 C-1.14008257 1.14008257 -1.14008257 1.14008257 0 0 Z " fill="#FE7C05" transform="translate(541,277)"/>
<path d="M0 0 C-3.34770322 3.77133233 -7.13973837 4.42936199 -12 5 C-17.00757521 5.15446252 -21.99078607 5.11879559 -27 5 C-22.51318762 2.55562 -17.91051873 1.79155202 -12.9375 0.8125 C-12.02677734 0.62236328 -11.11605469 0.43222656 -10.17773438 0.23632812 C-9.30310547 0.06166016 -8.42847656 -0.11300781 -7.52734375 -0.29296875 C-6.73062256 -0.4530542 -5.93390137 -0.61313965 -5.11303711 -0.77807617 C-3 -1 -3 -1 0 0 Z " fill="#FE8810" transform="translate(555,657)"/>
<path d="M0 0 C3.61711851 0.55708333 4.94146207 1.72861017 7.1875 4.5625 C10.53400524 8.60740633 14.22966678 11.90688768 18.27734375 15.23828125 C20 17 20 17 20 20 C16.7731002 18.57937485 14.60057488 16.85754559 12.109375 14.375 C11.04589844 13.31539062 11.04589844 13.31539062 9.9609375 12.234375 C9.23132813 11.49703125 8.50171875 10.7596875 7.75 10 C7.00492187 9.26265625 6.25984375 8.5253125 5.4921875 7.765625 C4.78835938 7.05921875 4.08453125 6.3528125 3.359375 5.625 C2.71452148 4.97789062 2.06966797 4.33078125 1.40527344 3.6640625 C0 2 0 2 0 0 Z " fill="#FE8A10" transform="translate(365,634)"/>
<path d="M0 0 C2.77141717 -0.08089542 5.54047819 -0.14044062 8.3125 -0.1875 C9.09818359 -0.21263672 9.88386719 -0.23777344 10.69335938 -0.26367188 C11.45068359 -0.27333984 12.20800781 -0.28300781 12.98828125 -0.29296875 C14.03302612 -0.31653442 14.03302612 -0.31653442 15.09887695 -0.34057617 C17 0 17 0 20 3 C13.07 2.67 6.14 2.34 -1 2 C-0.67 1.34 -0.34 0.68 0 0 Z " fill="#FE850B" transform="translate(507,443)"/>
<path d="M0 0 C0.33 0 0.66 0 1 0 C1.33 7.92 1.66 15.84 2 24 C1.01 23.34 0.02 22.68 -1 22 C-1.328125 19.53125 -1.328125 19.53125 -1.25 16.5 C-1.22421875 15.43265625 -1.1984375 14.3653125 -1.171875 13.265625 C-0.93803624 8.82268849 -0.54698573 4.41495628 0 0 Z " fill="#FE850E" transform="translate(451,495)"/>
<path d="M0 0 C0.79921875 0.00902344 1.5984375 0.01804687 2.421875 0.02734375 C3.02515625 0.03894531 3.6284375 0.05054688 4.25 0.0625 C0.87779599 2.310636 -2.38804748 3.23118014 -6.25 4.25 C-7.26513672 4.53520508 -7.26513672 4.53520508 -8.30078125 4.82617188 C-11.64960881 5.72117411 -13.39298405 6.18150532 -16.75 5.0625 C-15.50264433 4.4115741 -14.25198168 3.76698331 -13 3.125 C-12.30390625 2.76535156 -11.6078125 2.40570313 -10.890625 2.03515625 C-7.18995069 0.35364548 -4.04946487 -0.05955095 0 0 Z " fill="#FE8A10" transform="translate(455.75,259.9375)"/>
<path d="M0 0 C0.33 0 0.66 0 1 0 C1.09688221 5.44693314 1.12862175 10.63904667 0 16 C-0.66 16 -1.32 16 -2 16 C-2.33 16.99 -2.66 17.98 -3 19 C-3.38614349 12.1781317 -2.00865708 6.50422293 0 0 Z " fill="#FE880F" transform="translate(322,453)"/>
<path d="M0 0 C3.93239315 3.93239315 4.90780214 10.21750806 5.1875 15.625 C5.125625 16.40875 5.06375 17.1925 5 18 C4.67 17.01 4.34 16.02 4 15 C3.34 15 2.68 15 2 15 C0.53329887 9.77487721 -0.22577402 5.4185766 0 0 Z " fill="#FE8810" transform="translate(698,443)"/>
<path d="M0 0 C-1 2 -1 2 -2.890625 2.8515625 C-10.71069182 5.41509434 -10.71069182 5.41509434 -15 5 C-11.10278277 0.2367345 -5.84721872 -0.27843899 0 0 Z " fill="#FE8A11" transform="translate(552,612)"/>
<path d="M0 0 C2.37875755 2.37875755 2.28403059 3.12466032 2.5 6.375 C2.7253944 9.74464622 3.33026796 12.05103776 5 15 C3.0625 14.625 3.0625 14.625 1 14 C-0.38226016 11.23547967 -0.09525387 8.9538637 -0.0625 5.875 C-0.05347656 4.77929688 -0.04445313 3.68359375 -0.03515625 2.5546875 C-0.02355469 1.71164062 -0.01195312 0.86859375 0 0 Z " fill="#FE8710" transform="translate(703,462)"/>
<path d="M0 0 C5.31027254 1.46032495 9.46330032 3.98320986 14 7 C12 8 12 8 10.1953125 7.58203125 C5.96562389 6.00986397 2.90070641 4.62588301 0 1 C0 0.67 0 0.34 0 0 Z " fill="#FD8913" transform="translate(383,718)"/>
<path d="M0 0 C-1.32 0.33 -2.64 0.66 -4 1 C-4 1.66 -4 2.32 -4 3 C-9.94 3.495 -9.94 3.495 -16 4 C-13 2 -13 2 -10 2 C-10 1.34 -10 0.68 -10 0 C-3.375 -1.125 -3.375 -1.125 0 0 Z " fill="#FE860A" transform="translate(572,693)"/>
<path d="M0 0 C0.66 0 1.32 0 2 0 C1.5317879 4.77576339 0.75668002 8.04476345 -2 12 C-3.12377697 8.69564916 -2.89554742 6.9493138 -1.5625 3.75 C-1.27503906 3.04359375 -0.98757813 2.3371875 -0.69140625 1.609375 C-0.46324219 1.07828125 -0.23507812 0.5471875 0 0 Z " fill="#FE8A11" transform="translate(329,430)"/>
<path d="M0 0 C0.33 0 0.66 0 1 0 C0.44854729 5.23880078 -0.42922093 9.97350697 -2 15 C-2.33 15 -2.66 15 -3 15 C-3.35050464 9.158256 -3.16727335 5.1468192 0 0 Z " fill="#FE870F" transform="translate(270,438)"/>
<path d="M0 0 C0.33 0.61875 0.66 1.2375 1 1.875 C3.95608588 5.01584125 6.80920859 5.17558202 11 6 C11 6.33 11 6.66 11 7 C9.37536158 7.05395478 7.75021459 7.09277195 6.125 7.125 C5.22007812 7.14820313 4.31515625 7.17140625 3.3828125 7.1953125 C1 7 1 7 -1 5 C-0.625 2.375 -0.625 2.375 0 0 Z " fill="#FE860F" transform="translate(541,302)"/>
<path d="M0 0 C1.95979427 0.28168297 3.91782378 0.57566717 5.875 0.875 C7.51082031 1.11863281 7.51082031 1.11863281 9.1796875 1.3671875 C12 2 12 2 14 4 C4.41885965 4.56359649 4.41885965 4.56359649 0 1 C0 0.67 0 0.34 0 0 Z " fill="#FE8810" transform="translate(448,746)"/>
<path d="M0 0 C0.66 0 1.32 0 2 0 C1.40075776 4.19469571 0.42500059 8.00999834 -1 12 C-1.33 12 -1.66 12 -2 12 C-2.28571429 3.42857143 -2.28571429 3.42857143 0 0 Z " fill="#FE8911" transform="translate(454,482)"/>
<path d="M0 0 C3.67033927 3.27708863 5.69281189 6.71522208 8 11 C7.01 11.33 6.02 11.66 5 12 C4.16180842 10.37750059 3.3295884 8.75191503 2.5 7.125 C2.0359375 6.22007812 1.571875 5.31515625 1.09375 4.3828125 C0 2 0 2 0 0 Z " fill="#FE880F" transform="translate(605,433)"/>
<path d="M0 0 C0.33 0.99 0.66 1.98 1 3 C-1.31 5.31 -3.62 7.62 -6 10 C-6.99 9.67 -7.98 9.34 -9 9 C-6.03 6.03 -3.06 3.06 0 0 Z " fill="#FE870F" transform="translate(628,611)"/>
<path d="M0 0 C0.75 1.625 0.75 1.625 1 4 C-2.136 9.712 -2.136 9.712 -6 11 C-4.54955729 6.89041233 -2.48889248 3.56741255 0 0 Z " fill="#FE8810" transform="translate(565,533)"/>
<path d="M0 0 C0.66 0.33 1.32 0.66 2 1 C1.360625 2.03125 0.72125 3.0625 0.0625 4.125 C-1.81711371 7.38609658 -2.63126531 10.22046944 -3 14 C-4.125 12.4375 -4.125 12.4375 -5 10 C-4.19350685 5.82089913 -3.45366427 2.66874058 0 0 Z " fill="#FE8D1A" transform="translate(614,495)"/>
<path d="M0 0 C4.61513112 1.31860889 8.09897612 3.21355437 12 6 C11.01 6.495 11.01 6.495 10 7 C2.54022989 4.28735632 2.54022989 4.28735632 0 1 C0 0.67 0 0.34 0 0 Z " fill="#FE870E" transform="translate(605,329)"/>
<path d="M0 0 C1.27875 0.103125 2.5575 0.20625 3.875 0.3125 C4.95394531 0.39951172 4.95394531 0.39951172 6.0546875 0.48828125 C8 1 8 1 10 4 C6.53058454 3.54177532 3.32604951 3.10868317 0 2 C0 1.34 0 0.68 0 0 Z " fill="#FE8A0F" transform="translate(444,689)"/>
<path d="M0 0 C5.50366792 -0.32374517 9.43672206 -0.53286034 14 3 C13.67 3.66 13.34 4.32 13 5 C11.02 4.34 9.04 3.68 7 3 C7 2.67 7 2.34 7 2 C4.69 1.67 2.38 1.34 0 1 C0 0.67 0 0.34 0 0 Z " fill="#FD8E19" transform="translate(507,603)"/>
<path d="M0 0 C3 2 3 2 3.51171875 4.1640625 C3.56972656 4.97617187 3.62773437 5.78828125 3.6875 6.625 C3.75324219 7.44226563 3.81898438 8.25953125 3.88671875 9.1015625 C3.92410156 9.72804688 3.96148437 10.35453125 4 11 C2 10 2 10 0.875 7.1875 C0 4 0 4 0 0 Z " fill="#FE880F" transform="translate(325,563)"/>
<path d="M0 0 C0.66 0.33 1.32 0.66 2 1 C2 3.31 2 5.62 2 8 C1.34 8 0.68 8 0 8 C0 9.98 0 11.96 0 14 C-0.33 14 -0.66 14 -1 14 C-1.22226864 12.23086176 -1.42733873 10.45955629 -1.625 8.6875 C-1.74101563 7.70136719 -1.85703125 6.71523438 -1.9765625 5.69921875 C-2 3 -2 3 0 0 Z " fill="#FC9724" transform="translate(670,520)"/>
<path d="M0 0 C-1.65 0.66 -3.3 1.32 -5 2 C-5 2.66 -5 3.32 -5 4 C-6.65 4.66 -8.3 5.32 -10 6 C-10 5.01 -10 4.02 -10 3 C-7.03244294 0.2444113 -3.89336263 -1.94668132 0 0 Z " fill="#FE8B11" transform="translate(482,453)"/>
<path d="M0 0 C-0.99 0.33 -1.98 0.66 -3 1 C-3 1.66 -3 2.32 -3 3 C-5.97 3 -8.94 3 -12 3 C-11 1 -11 1 -9.375 0.375 C-6.2339425 -0.12095645 -3.17398169 -0.06103811 0 0 Z " fill="#FE850B" transform="translate(475,308)"/>
<path d="M0 0 C0.66 0.33 1.32 0.66 2 1 C1 4 1 4 -1 5 C-3.3329866 5.04022391 -5.66706666 5.04320247 -8 5 C-6.35197949 1.70395897 -3.32254422 1.22409524 0 0 Z " fill="#FE8710" transform="translate(536,560)"/>
<path d="M0 0 C0.99 0.33 1.98 0.66 3 1 C4.1577506 4.47325181 4.06866652 7.36067448 4 11 C1.6870518 8.6870518 1.50419025 7.52095125 0.875 4.375 C0.70742188 3.55773437 0.53984375 2.74046875 0.3671875 1.8984375 C0.24601563 1.27195312 0.12484375 0.64546875 0 0 Z " fill="#FE8912" transform="translate(660,449)"/>
<path d="M0 0 C1.21386936 3.64160808 0.6674695 4.33165469 -0.9375 7.6875 C-1.31777344 8.49574219 -1.69804687 9.30398438 -2.08984375 10.13671875 C-2.39019531 10.75160156 -2.69054687 11.36648438 -3 12 C-4.29922995 9.4015401 -3.81286289 8.24038549 -3.1875 5.4375 C-3.01605469 4.63183594 -2.84460938 3.82617188 -2.66796875 2.99609375 C-2 1 -2 1 0 0 Z " fill="#FE8710" transform="translate(278,415)"/>
<path d="M0 0 C-1 3 -1 3 -3.3125 4.75 C-6 6 -6 6 -8.3125 5.6875 C-8.869375 5.460625 -9.42625 5.23375 -10 5 C-7.30495181 2.30495181 -3.91639523 0 0 0 Z " fill="#FE8A10" transform="translate(425,325)"/>
<path d="M0 0 C3.1875 0.875 3.1875 0.875 6 2 C6 2.33 6 2.66 6 3 C3.36 3.33 0.72 3.66 -2 4 C-2.33 5.32 -2.66 6.64 -3 8 C-3.1875 5.125 -3.1875 5.125 -3 2 C-2.01 1.34 -1.02 0.68 0 0 Z " fill="#FE840F" transform="translate(544,255)"/>
<path d="M0 0 C0.33 0.66 0.66 1.32 1 2 C-1.31 2 -3.62 2 -6 2 C-5.34 2.33 -4.68 2.66 -4 3 C-4 3.66 -4 4.32 -4 5 C-5.32 5 -6.64 5 -8 5 C-8 4.01 -8 3.02 -8 2 C-8.66 1.67 -9.32 1.34 -10 1 C-6.78548731 -0.60725635 -3.56387464 -0.05748185 0 0 Z " fill="#F9992B" transform="translate(516,223)"/>
<path d="M0 0 C2.97 0 5.94 0 9 0 C8.67 0.66 8.34 1.32 8 2 C5.93359375 2.4140625 5.93359375 2.4140625 3.4375 2.625 C2.61121094 2.69976563 1.78492188 2.77453125 0.93359375 2.8515625 C-0.02353516 2.92503906 -0.02353516 2.92503906 -1 3 C-0.67 2.01 -0.34 1.02 0 0 Z " fill="#FF870C" transform="translate(546,697)"/>
<path d="M0 0 C0.33 0 0.66 0 1 0 C0.88601335 1.62580966 0.75844341 3.25067157 0.625 4.875 C0.52058594 6.23238281 0.52058594 6.23238281 0.4140625 7.6171875 C0 10 0 10 -2 12 C-2.28571429 3.42857143 -2.28571429 3.42857143 0 0 Z " fill="#FE850D" transform="translate(626,521)"/>
<path d="M0 0 C7.75 1.875 7.75 1.875 10 3 C10 3.66 10 4.32 10 5 C6.05140217 4.4359146 3.29120954 3.2568294 0 1 C0 0.67 0 0.34 0 0 Z " fill="#FE8C0F" transform="translate(411,673)"/>
<path d="M0 0 C5.2734375 1.85546875 5.2734375 1.85546875 7 3 C8.2265625 5.61328125 8.2265625 5.61328125 9 8 C7.49460339 7.05016642 5.99579653 6.08988109 4.5 5.125 C3.6646875 4.59132813 2.829375 4.05765625 1.96875 3.5078125 C1.3190625 3.01023437 0.669375 2.51265625 0 2 C0 1.34 0 0.68 0 0 Z " fill="#FE8A0E" transform="translate(438,593)"/>
<path d="M0 0 C2.39763185 2.39763185 2.34280586 3.33273498 2.625 6.625 C2.69976562 7.44226563 2.77453125 8.25953125 2.8515625 9.1015625 C2.90054687 9.72804688 2.94953125 10.35453125 3 11 C2.67 10.34 2.34 9.68 2 9 C1.34 9 0.68 9 0 9 C0 6.03 0 3.06 0 0 Z " fill="#FD870D" transform="translate(267,558)"/>
<path d="M0 0 C1.125 1.625 1.125 1.625 2 4 C1.13120403 7.87009115 0.09639322 10.46658737 -3 13 C-2.67 11.02 -2.34 9.04 -2 7 C-1.67 7 -1.34 7 -1 7 C-0.67 4.69 -0.34 2.38 0 0 Z " fill="#FD901E" transform="translate(412,500)"/>
<path d="M0 0 C3.16115776 1.36983503 3.9927092 1.9890638 6 5 C6.125 7.6875 6.125 7.6875 6 10 C3.25722422 6.80009492 1.3697164 3.99500618 0 0 Z " fill="#FE890F" transform="translate(562,471)"/>
<path d="M0 0 C0.33 0 0.66 0 1 0 C2.05699482 5.28497409 2.05699482 5.28497409 2 8 C0.0625 10.5 0.0625 10.5 -2 12 C-1 3.42857143 -1 3.42857143 0 0 Z " fill="#FD9B28" transform="translate(266,448)"/>
<path d="M0 0 C3.79588866 0.54226981 5.47211993 2.20127563 8 5 C7.67 5.99 7.34 6.98 7 8 C5.83035398 6.8572081 4.66435444 5.71068285 3.5 4.5625 C2.8503125 3.92441406 2.200625 3.28632813 1.53125 2.62890625 C0 1 0 1 0 0 Z " fill="#FE880D" transform="translate(617,387)"/>
<path d="M0 0 C-1.20381448 2.49361571 -2.45428722 4.68143083 -4 7 C-5.32 6.67 -6.64 6.34 -8 6 C-7.0479279 4.99403703 -6.08812654 3.99538437 -5.125 3 C-4.59132813 2.443125 -4.05765625 1.88625 -3.5078125 1.3125 C-2 0 -2 0 0 0 Z " fill="#FE840C" transform="translate(381,356)"/>
<path d="M0 0 C2.64 0 5.28 0 8 0 C8.33 0.99 8.66 1.98 9 3 C2.25 2.25 2.25 2.25 0 0 Z " fill="#FE890F" transform="translate(457,694)"/>
<path d="M0 0 C0.66 0 1.32 0 2 0 C2 2.31 2 4.62 2 7 C1.34 7 0.68 7 0 7 C-0.33 7.66 -0.66 8.32 -1 9 C-0.67 6.03 -0.34 3.06 0 0 Z " fill="#FE8810" transform="translate(398,474)"/>
<path d="M0 0 C0.99 0.495 0.99 0.495 2 1 C2.6328125 3.06640625 2.6328125 3.06640625 3.125 5.5625 C3.29257812 6.38878906 3.46015625 7.21507812 3.6328125 8.06640625 C3.75398437 8.70449219 3.87515625 9.34257812 4 10 C1 8 1 8 0.48828125 6.0546875 C0.32552083 4.03645833 0.16276042 2.01822917 0 0 Z " fill="#FE850D" transform="translate(694,432)"/>
<path d="M0 0 C1.45922693 0.11409593 2.91740598 0.24165544 4.375 0.375 C5.59316406 0.47941406 5.59316406 0.47941406 6.8359375 0.5859375 C9 1 9 1 11 3 C3.43365385 3.37211538 3.43365385 3.37211538 1.23828125 1.48828125 C0.82964844 0.99714844 0.42101562 0.50601562 0 0 Z " fill="#FE870C" transform="translate(553,309)"/>
<path d="M0 0 C6.75 0.875 6.75 0.875 9 2 C9 2.66 9 3.32 9 4 C3.46153846 3.38461538 3.46153846 3.38461538 1.125 1.4375 C0.75375 0.963125 0.3825 0.48875 0 0 Z " fill="#FE8912" transform="translate(606,273)"/>
<path d="M0 0 C-0.99 0.495 -0.99 0.495 -2 1 C-2 1.66 -2 2.32 -2 3 C-4.64 3 -7.28 3 -10 3 C-6.88378718 -0.11621282 -4.21175599 -0.11383124 0 0 Z " fill="#FE8911" transform="translate(587,743)"/>
<path d="M0 0 C3.82097239 0.53069061 6.06171403 1.49701566 9 4 C3.48 4.368 3.48 4.368 1.125 2.5625 C0 1 0 1 0 0 Z " fill="#FD8713" transform="translate(403,729)"/>
<path d="M0 0 C2.31 0 4.62 0 7 0 C7 0.66 7 1.32 7 2 C7.99 2.33 8.98 2.66 10 3 C8.5199159 2.88637738 7.04089926 2.75877092 5.5625 2.625 C4.73878906 2.55539062 3.91507812 2.48578125 3.06640625 2.4140625 C2.38449219 2.27742187 1.70257813 2.14078125 1 2 C0.67 1.34 0.34 0.68 0 0 Z " fill="#FF840B" transform="translate(476,614)"/>
<path d="M0 0 C3.24208567 0.35049575 4.61527704 0.56221181 6.8125 3.0625 C7.204375 3.701875 7.59625 4.34125 8 5 C4.62537285 4.45276317 2.91765 3.9451 0 2 C0 1.34 0 0.68 0 0 Z " fill="#FE880F" transform="translate(449,601)"/>
<path d="M0 0 C3 3 3 3 3.07421875 5.26171875 C2.94660156 6.06222656 2.81898438 6.86273437 2.6875 7.6875 C2.50767578 8.89986328 2.50767578 8.89986328 2.32421875 10.13671875 C2.21722656 10.75160156 2.11023438 11.36648438 2 12 C1.67 12 1.34 12 1 12 C0.67 8.04 0.34 4.08 0 0 Z " fill="#FD9827" transform="translate(760,532)"/>
<path d="M0 0 C2.64 0.33 5.28 0.66 8 1 C8 1.66 8 2.32 8 3 C5.69 3 3.38 3 1 3 C0.67 2.01 0.34 1.02 0 0 Z " fill="#FE860F" transform="translate(540,388)"/>
<path d="M0 0 C-2.35968744 2.09749995 -3.54616994 2.96905704 -6.75 3.1875 C-7.86375 3.0946875 -7.86375 3.0946875 -9 3 C-6.07868595 -0.19953443 -4.37453972 -1.45817991 0 0 Z " fill="#FE890D" transform="translate(444,318)"/>
<path d="M0 0 C0.99 0 1.98 0 3 0 C2.67 2.31 2.34 4.62 2 7 C1.01 7 0.02 7 -1 7 C-0.67 4.69 -0.34 2.38 0 0 Z " fill="#FB8915" transform="translate(520,776)"/>
<path d="M0 0 C0.66 0.33 1.32 0.66 2 1 C0.25 3.0625 0.25 3.0625 -2 5 C-4.25 4.75 -4.25 4.75 -6 4 C-4.02 2.68 -2.04 1.36 0 0 Z " fill="#FE8910" transform="translate(643,716)"/>
<path d="M0 0 C2.31 0 4.62 0 7 0 C7 0.66 7 1.32 7 2 C7.66 2.33 8.32 2.66 9 3 C6.03 2.67 3.06 2.34 0 2 C0 1.34 0 0.68 0 0 Z " fill="#FE840B" transform="translate(469,697)"/>
<path d="M0 0 C2.875 0.3125 2.875 0.3125 6 1 C6.66 1.99 7.32 2.98 8 4 C2.25 3.125 2.25 3.125 0 2 C0 1.34 0 0.68 0 0 Z " fill="#FF8A0E" transform="translate(428,682)"/>
<path d="M0 0 C-1.04874998 2.62187494 -1.64931313 3.79371361 -4.125 5.25 C-4.74375 5.4975 -5.3625 5.745 -6 6 C-6 5.01 -6 4.02 -6 3 C-2.66666667 0 -2.66666667 0 0 0 Z " fill="#FE8910" transform="translate(610,629)"/>
<path d="M0 0 C0 3 0 3 -1.53125 4.60546875 C-2.1809375 5.12753906 -2.830625 5.64960938 -3.5 6.1875 C-4.1496875 6.71730469 -4.799375 7.24710937 -5.46875 7.79296875 C-5.9740625 8.19128906 -6.479375 8.58960938 -7 9 C-6.19095897 4.20719998 -3.74015409 2.86479887 0 0 Z " fill="#FE8507" transform="translate(337,325)"/>
<path d="M0 0 C1.32 0.33 2.64 0.66 4 1 C1.03 3.475 1.03 3.475 -2 6 C-2.66 5.67 -3.32 5.34 -4 5 C-2.68 3.35 -1.36 1.7 0 0 Z " fill="#FE8911" transform="translate(362,302)"/>
<path d="M0 0 C0.33 0.66 0.66 1.32 1 2 C0.01 3.32 -0.98 4.64 -2 6 C-3.32 5.67 -4.64 5.34 -6 5 C-4.02 3.35 -2.04 1.7 0 0 Z " fill="#FD8710" transform="translate(667,699)"/>
<path d="M0 0 C-1.39332574 3.36720387 -2.9789286 4.9859524 -6 7 C-5.37162381 3.35541809 -4.14650034 0 0 0 Z " fill="#FE8A0F" transform="translate(661,630)"/>
<path d="M0 0 C2.97 0.495 2.97 0.495 6 1 C6 1.66 6 2.32 6 3 C6.66 3.33 7.32 3.66 8 4 C5.125 3.6875 5.125 3.6875 2 3 C1.34 2.01 0.68 1.02 0 0 Z " fill="#FE8B19" transform="translate(612,511)"/>
<path d="M0 0 C1.0326802 2.78823655 1.04509293 3.8677274 0.0625 6.75 C-0.288125 7.4925 -0.63875 8.235 -1 9 C-1.33 9 -1.66 9 -2 9 C-2.125 5.625 -2.125 5.625 -2 2 C-1.34 1.34 -0.68 0.68 0 0 Z " fill="#FE890F" transform="translate(361,454)"/>
<path d="M0 0 C0.33 0 0.66 0 1 0 C1 2.31 1 4.62 1 7 C0.34 7 -0.32 7 -1 7 C-1.33 7.66 -1.66 8.32 -2 9 C-1.125 2.25 -1.125 2.25 0 0 Z " fill="#FE860C" transform="translate(325,443)"/>
<path d="M0 0 C2 1.75 2 1.75 4 4 C4 5.32 4 6.64 4 8 C3.34 8 2.68 8 2 8 C0.74335022 5.09399739 0 3.20395416 0 0 Z " fill="#FE870D" transform="translate(656,439)"/>
<path d="M0 0 C3.77545388 1.09068668 6.47043472 1.9083091 9 5 C7.68428397 4.7452486 6.37239624 4.47065859 5.0625 4.1875 C4.33160156 4.03667969 3.60070312 3.88585937 2.84765625 3.73046875 C2.23792969 3.48941406 1.62820313 3.24835938 1 3 C0.67 2.01 0.34 1.02 0 0 Z " fill="#FE850C" transform="translate(559,395)"/>
<path d="M0 0 C2.97 0.495 2.97 0.495 6 1 C6.33 1.99 6.66 2.98 7 4 C4.69 3.34 2.38 2.68 0 2 C0 1.34 0 0.68 0 0 Z " fill="#FE860D" transform="translate(577,360)"/>
<path d="M0 0 C2.31 0 4.62 0 7 0 C7 0.66 7 1.32 7 2 C7.66 2.33 8.32 2.66 9 3 C2.84765625 2.4140625 2.84765625 2.4140625 1 2 C0.67 1.34 0.34 0.68 0 0 Z " fill="#FE850C" transform="translate(552,351)"/>
<path d="M0 0 C-3.4352048 2.29013653 -4.985331 2.17842973 -9 2 C-8 0 -8 0 -6.1875 -0.6875 C-3.81180233 -1.02688538 -2.26664171 -0.72856341 0 0 Z " fill="#FE850C" transform="translate(462,312)"/>
<path d="M0 0 C0.66 0 1.32 0 2 0 C2 2.31 2 4.62 2 7 C1.67 7 1.34 7 1 7 C0.67 4.69 0.34 2.38 0 0 Z " fill="#FE9119" transform="translate(353,536)"/>
<path d="M0 0 C2.64 0 5.28 0 8 0 C8 0.33 8 0.66 8 1 C5.36 1 2.72 1 0 1 C0 0.67 0 0.34 0 0 Z " fill="#FC911A" transform="translate(304,479)"/>
<path d="M0 0 C0.33 0 0.66 0 1 0 C1 1.98 1 3.96 1 6 C0.67 6 0.34 6 0 6 C0 4.02 0 2.04 0 0 Z " fill="#FF9116" transform="translate(498,665)"/>
<path d="M0 0 C1.65 0 3.3 0 5 0 C5 0.33 5 0.66 5 1 C3.35 1 1.7 1 0 1 C0 0.67 0 0.34 0 0 Z " fill="#FD921A" transform="translate(539,663)"/>
<path d="M0 0 C1.65 0 3.3 0 5 0 C5 0.33 5 0.66 5 1 C3.35 1 1.7 1 0 1 C0 0.67 0 0.34 0 0 Z " fill="#FD941C" transform="translate(724,479)"/>
<path d="M0 0 C0.99 0 1.98 0 3 0 C2.67 0.66 2.34 1.32 2 2 C1.34 1.34 0.68 0.68 0 0 Z " fill="#FA911D" transform="translate(571,750)"/>
<path d="M0 0 C1 4 1 4 1 4 Z " fill="#FF9219" transform="translate(498,740)"/>
<path d="M0 0 C0.66 0 1.32 0 2 0 C1.67 0.99 1.34 1.98 1 3 C0.67 2.01 0.34 1.02 0 0 Z " fill="#FC8F19" transform="translate(623,517)"/>
<path d="" fill="#FE9217" transform="translate(0,0)"/>
<path d="M0 0 C3 1 3 1 3 1 Z " fill="#FF9419" transform="translate(472,661)"/>
<path d="M0 0 C3 1 3 1 3 1 Z " fill="#FC931D" transform="translate(749,479)"/>
<path d="" fill="#FF941C" transform="translate(0,0)"/>
<path d="M0 0 C3 1 3 1 3 1 Z " fill="#FA921B" transform="translate(533,344)"/>
<path d="M0 0 C0.99 0.495 0.99 0.495 2 1 C1.01 1.495 1.01 1.495 0 2 C0 1.34 0 0.68 0 0 Z " fill="#F6911D" transform="translate(408,272)"/>
<path d="M0 0 C3 1 3 1 3 1 Z " fill="#F28E1F" transform="translate(589,264)"/>
<path d="" fill="#FC9119" transform="translate(0,0)"/>
<path d="" fill="#FE9219" transform="translate(0,0)"/>
<path d="M0 0 C2 1 2 1 2 1 Z " fill="#F9941F" transform="translate(478,755)"/>
<path d="" fill="#FF9219" transform="translate(0,0)"/>
<path d="" fill="#FF9317" transform="translate(0,0)"/>
<path d="" fill="#FE9317" transform="translate(0,0)"/>
<path d="" fill="#FF9218" transform="translate(0,0)"/>
<path d="" fill="#FF9317" transform="translate(0,0)"/>
<path d="" fill="#FF9217" transform="translate(0,0)"/>
<path d="M0 0 C2 1 2 1 2 1 Z " fill="#FE921A" transform="translate(544,696)"/>
<path d="" fill="#FF9116" transform="translate(0,0)"/>
<path d="" fill="#FF9318" transform="translate(0,0)"/>
<path d="M0 0 C2 1 2 1 2 1 Z " fill="#F99622" transform="translate(430,680)"/>
<path d="" fill="#F1901F" transform="translate(0,0)"/>
<path d="M0 0 C2 1 2 1 2 1 Z " fill="#FF941B" transform="translate(451,654)"/>
<path d="M0 0 C2 1 2 1 2 1 Z " fill="#FF961A" transform="translate(632,648)"/>
<path d="" fill="#FC941B" transform="translate(0,0)"/>
<path d="" fill="#FD921D" transform="translate(0,0)"/>
<path d="" fill="#FF931B" transform="translate(0,0)"/>
<path d="" fill="#F6911F" transform="translate(0,0)"/>
<path d="" fill="#F9911E" transform="translate(0,0)"/>
<path d="" fill="#FC921B" transform="translate(0,0)"/>
<path d="" fill="#FA911C" transform="translate(0,0)"/>
<path d="" fill="#FC951D" transform="translate(0,0)"/>
<path d="" fill="#FC931B" transform="translate(0,0)"/>
<path d="M0 0 C2 1 2 1 2 1 Z " fill="#EE8B22" transform="translate(792,517)"/>
<path d="M0 0 C2 1 2 1 2 1 Z " fill="#FD9019" transform="translate(399,517)"/>
<path d="M0 0 C2 1 2 1 2 1 Z " fill="#FF8F17" transform="translate(287,517)"/>
<path d="M0 0 C2 1 2 1 2 1 Z " fill="#FE931B" transform="translate(732,479)"/>
<path d="M0 0 C2 1 2 1 2 1 Z " fill="#FD941C" transform="translate(719,479)"/>
<path d="M0 0 C2 1 2 1 2 1 Z " fill="#FE921A" transform="translate(300,479)"/>
<path d="" fill="#FF921B" transform="translate(0,0)"/>
<path d="" fill="#FF961D" transform="translate(0,0)"/>
<path d="M0 0 C2 1 2 1 2 1 Z " fill="#FA951C" transform="translate(430,423)"/>
<path d="M0 0 C2 1 2 1 2 1 Z " fill="#F99720" transform="translate(438,415)"/>
<path d="M0 0 C2 1 2 1 2 1 Z " fill="#FF911B" transform="translate(528,389)"/>
<path d="" fill="#F29121" transform="translate(0,0)"/>
<path d="" fill="#FF8F17" transform="translate(0,0)"/>
<path d="" fill="#FE9117" transform="translate(0,0)"/>
<path d="" fill="#F8921F" transform="translate(0,0)"/>
<path d="" fill="#E98821" transform="translate(0,0)"/>
<path d="" fill="#F38D1C" transform="translate(0,0)"/>
<path d="" fill="#FB901A" transform="translate(0,0)"/>
<path d="" fill="#FD9119" transform="translate(0,0)"/>
<path d="" fill="#FB941E" transform="translate(0,0)"/>
<path d="" fill="#FF9218" transform="translate(0,0)"/>
<path d="" fill="#F88E1C" transform="translate(0,0)"/>
<path d="" fill="#FB911C" transform="translate(0,0)"/>
<path d="" fill="#F9921D" transform="translate(0,0)"/>
<path d="" fill="#FD941B" transform="translate(0,0)"/>
<path d="" fill="#F99420" transform="translate(0,0)"/>
<path d="" fill="#FD921D" transform="translate(0,0)"/>
<path d="" fill="#FF9418" transform="translate(0,0)"/>
<path d="" fill="#F7901A" transform="translate(0,0)"/>
<path d="" fill="#F89420" transform="translate(0,0)"/>
<path d="" fill="#F98F1D" transform="translate(0,0)"/>
<path d="" fill="#F69223" transform="translate(0,0)"/>
<path d="" fill="#F8901F" transform="translate(0,0)"/>
<path d="" fill="#FF9217" transform="translate(0,0)"/>
<path d="" fill="#F4931F" transform="translate(0,0)"/>
<path d="" fill="#F5911F" transform="translate(0,0)"/>
<path d="" fill="#F48B18" transform="translate(0,0)"/>
<path d="" fill="#F48F20" transform="translate(0,0)"/>
<path d="" fill="#F68D1C" transform="translate(0,0)"/>
<path d="" fill="#F7921E" transform="translate(0,0)"/>
<path d="" fill="#F88F1D" transform="translate(0,0)"/>
<path d="" fill="#F6931D" transform="translate(0,0)"/>
<path d="" fill="#F8931D" transform="translate(0,0)"/>
<path d="" fill="#F59120" transform="translate(0,0)"/>
<path d="" fill="#F79222" transform="translate(0,0)"/>
<path d="" fill="#FF961A" transform="translate(0,0)"/>
<path d="" fill="#F7911B" transform="translate(0,0)"/>
<path d="" fill="#F6921C" transform="translate(0,0)"/>
<path d="" fill="#F48F1F" transform="translate(0,0)"/>
<path d="" fill="#FF9116" transform="translate(0,0)"/>
<path d="" fill="#F48C19" transform="translate(0,0)"/>
<path d="" fill="#FF9216" transform="translate(0,0)"/>
<path d="" fill="#F18F1C" transform="translate(0,0)"/>
<path d="" fill="#F79420" transform="translate(0,0)"/>
<path d="" fill="#FF961C" transform="translate(0,0)"/>
<path d="" fill="#FF9117" transform="translate(0,0)"/>
<path d="" fill="#FD981F" transform="translate(0,0)"/>
<path d="" fill="#F29121" transform="translate(0,0)"/>
<path d="" fill="#FE941B" transform="translate(0,0)"/>
<path d="" fill="#FF9216" transform="translate(0,0)"/>
<path d="" fill="#FF9215" transform="translate(0,0)"/>
<path d="" fill="#FF9016" transform="translate(0,0)"/>
<path d="" fill="#FC931B" transform="translate(0,0)"/>
<path d="" fill="#F79320" transform="translate(0,0)"/>
<path d="" fill="#FF9317" transform="translate(0,0)"/>
<path d="" fill="#FA971C" transform="translate(0,0)"/>
<path d="" fill="#FE921A" transform="translate(0,0)"/>
<path d="" fill="#FF931C" transform="translate(0,0)"/>
<path d="" fill="#FF951B" transform="translate(0,0)"/>
<path d="" fill="#F7911D" transform="translate(0,0)"/>
<path d="" fill="#F59020" transform="translate(0,0)"/>
<path d="" fill="#FF9316" transform="translate(0,0)"/>
<path d="" fill="#FF951C" transform="translate(0,0)"/>
<path d="" fill="#F69121" transform="translate(0,0)"/>
<path d="" fill="#FF961B" transform="translate(0,0)"/>
<path d="" fill="#FF971B" transform="translate(0,0)"/>
<path d="" fill="#FF951C" transform="translate(0,0)"/>
<path d="" fill="#FE961B" transform="translate(0,0)"/>
<path d="" fill="#FD9319" transform="translate(0,0)"/>
<path d="" fill="#FC941E" transform="translate(0,0)"/>
<path d="" fill="#FE971F" transform="translate(0,0)"/>
<path d="" fill="#FD961C" transform="translate(0,0)"/>
<path d="" fill="#FE9319" transform="translate(0,0)"/>
<path d="" fill="#FE941C" transform="translate(0,0)"/>
<path d="" fill="#F7911F" transform="translate(0,0)"/>
<path d="" fill="#FF961C" transform="translate(0,0)"/>
<path d="" fill="#FA9526" transform="translate(0,0)"/>
<path d="" fill="#FE8F15" transform="translate(0,0)"/>
<path d="" fill="#F88F1B" transform="translate(0,0)"/>
<path d="" fill="#FE9419" transform="translate(0,0)"/>
<path d="" fill="#F18E22" transform="translate(0,0)"/>
<path d="" fill="#F69221" transform="translate(0,0)"/>
<path d="" fill="#FD961D" transform="translate(0,0)"/>
<path d="" fill="#F6901B" transform="translate(0,0)"/>
<path d="" fill="#F6921E" transform="translate(0,0)"/>
<path d="" fill="#FD941C" transform="translate(0,0)"/>
<path d="" fill="#FF9218" transform="translate(0,0)"/>
<path d="" fill="#F6911C" transform="translate(0,0)"/>
<path d="" fill="#FC921E" transform="translate(0,0)"/>
<path d="" fill="#F39023" transform="translate(0,0)"/>
<path d="" fill="#F78E18" transform="translate(0,0)"/>
<path d="" fill="#FF941B" transform="translate(0,0)"/>
<path d="" fill="#FF9418" transform="translate(0,0)"/>
<path d="" fill="#FC9219" transform="translate(0,0)"/>
<path d="" fill="#FF951C" transform="translate(0,0)"/>
<path d="" fill="#F7901C" transform="translate(0,0)"/>
<path d="" fill="#FF951B" transform="translate(0,0)"/>
<path d="" fill="#FB931C" transform="translate(0,0)"/>
<path d="" fill="#FD941C" transform="translate(0,0)"/>
<path d="" fill="#FE951B" transform="translate(0,0)"/>
<path d="" fill="#FF941B" transform="translate(0,0)"/>
<path d="" fill="#FF951A" transform="translate(0,0)"/>
<path d="" fill="#FE961E" transform="translate(0,0)"/>
<path d="" fill="#F99422" transform="translate(0,0)"/>
<path d="" fill="#FD931A" transform="translate(0,0)"/>
<path d="" fill="#FE951A" transform="translate(0,0)"/>
<path d="" fill="#FC921A" transform="translate(0,0)"/>
<path d="" fill="#FD941D" transform="translate(0,0)"/>
<path d="" fill="#FF951D" transform="translate(0,0)"/>
<path d="" fill="#FD941C" transform="translate(0,0)"/>
<path d="" fill="#FF9621" transform="translate(0,0)"/>
<path d="" fill="#FC9319" transform="translate(0,0)"/>
<path d="" fill="#F9911C" transform="translate(0,0)"/>
<path d="" fill="#FC9520" transform="translate(0,0)"/>
<path d="" fill="#F38C1C" transform="translate(0,0)"/>
<path d="" fill="#F88C1A" transform="translate(0,0)"/>
<path d="" fill="#FF951D" transform="translate(0,0)"/>
<path d="" fill="#FF951E" transform="translate(0,0)"/>
<path d="" fill="#F68A17" transform="translate(0,0)"/>
<path d="" fill="#FF9519" transform="translate(0,0)"/>
<path d="" fill="#FF9315" transform="translate(0,0)"/>
<path d="" fill="#FF9319" transform="translate(0,0)"/>
<path d="" fill="#FF9619" transform="translate(0,0)"/>
<path d="" fill="#FE931C" transform="translate(0,0)"/>
<path d="" fill="#FE931A" transform="translate(0,0)"/>
<path d="" fill="#FE951C" transform="translate(0,0)"/>
<path d="" fill="#FA921F" transform="translate(0,0)"/>
<path d="" fill="#FF9216" transform="translate(0,0)"/>
<path d="" fill="#FE9118" transform="translate(0,0)"/>
<path d="" fill="#FD921A" transform="translate(0,0)"/>
<path d="" fill="#FE9319" transform="translate(0,0)"/>
<path d="" fill="#FD9118" transform="translate(0,0)"/>
<path d="" fill="#FE8E15" transform="translate(0,0)"/>
<path d="" fill="#F58F20" transform="translate(0,0)"/>
<path d="" fill="#FA901D" transform="translate(0,0)"/>
<path d="" fill="#FD911A" transform="translate(0,0)"/>
<path d="" fill="#FE8F1A" transform="translate(0,0)"/>
<path d="" fill="#FF9119" transform="translate(0,0)"/>
<path d="" fill="#FF931C" transform="translate(0,0)"/>
<path d="" fill="#FF9017" transform="translate(0,0)"/>
<path d="" fill="#FF951D" transform="translate(0,0)"/>
<path d="" fill="#FF9017" transform="translate(0,0)"/>
<path d="" fill="#F9941C" transform="translate(0,0)"/>
<path d="" fill="#FC901C" transform="translate(0,0)"/>
<path d="" fill="#FC9420" transform="translate(0,0)"/>
<path d="" fill="#EB8C25" transform="translate(0,0)"/>
<path d="" fill="#FC9620" transform="translate(0,0)"/>
<path d="" fill="#FE941E" transform="translate(0,0)"/>
<path d="" fill="#FE951E" transform="translate(0,0)"/>
<path d="" fill="#FD941C" transform="translate(0,0)"/>
<path d="" fill="#FF941C" transform="translate(0,0)"/>
<path d="" fill="#FD921B" transform="translate(0,0)"/>
<path d="" fill="#FF951F" transform="translate(0,0)"/>
<path d="" fill="#FD931C" transform="translate(0,0)"/>
<path d="" fill="#FC941D" transform="translate(0,0)"/>
<path d="" fill="#FC941E" transform="translate(0,0)"/>
<path d="" fill="#FD941D" transform="translate(0,0)"/>
<path d="" fill="#FA941F" transform="translate(0,0)"/>
<path d="" fill="#FB9220" transform="translate(0,0)"/>
<path d="" fill="#FC8F1A" transform="translate(0,0)"/>
<path d="" fill="#FF9420" transform="translate(0,0)"/>
<path d="" fill="#FC9219" transform="translate(0,0)"/>
<path d="" fill="#FD931E" transform="translate(0,0)"/>
<path d="" fill="#FA931E" transform="translate(0,0)"/>
<path d="" fill="#FE9219" transform="translate(0,0)"/>
<path d="" fill="#FF951B" transform="translate(0,0)"/>
<path d="" fill="#FF931A" transform="translate(0,0)"/>
<path d="" fill="#FB951D" transform="translate(0,0)"/>
<path d="" fill="#FD921B" transform="translate(0,0)"/>
<path d="" fill="#FE931D" transform="translate(0,0)"/>
<path d="" fill="#F7911E" transform="translate(0,0)"/>
<path d="" fill="#FB9522" transform="translate(0,0)"/>
<path d="" fill="#FB941E" transform="translate(0,0)"/>
<path d="" fill="#FA921D" transform="translate(0,0)"/>
<path d="" fill="#FB961F" transform="translate(0,0)"/>
<path d="" fill="#FC8E19" transform="translate(0,0)"/>
<path d="" fill="#FE9319" transform="translate(0,0)"/>
<path d="" fill="#FF921D" transform="translate(0,0)"/>
<path d="" fill="#F7941E" transform="translate(0,0)"/>
<path d="" fill="#FF951C" transform="translate(0,0)"/>
<path d="" fill="#F99420" transform="translate(0,0)"/>
<path d="" fill="#FE931C" transform="translate(0,0)"/>
<path d="" fill="#FD951C" transform="translate(0,0)"/>
<path d="" fill="#F59525" transform="translate(0,0)"/>
<path d="" fill="#F59120" transform="translate(0,0)"/>
<path d="" fill="#F69423" transform="translate(0,0)"/>
<path d="" fill="#FA941F" transform="translate(0,0)"/>
<path d="" fill="#FF9319" transform="translate(0,0)"/>
<path d="" fill="#FB8B15" transform="translate(0,0)"/>
<path d="" fill="#FF931A" transform="translate(0,0)"/>
<path d="" fill="#FD921A" transform="translate(0,0)"/>
<path d="" fill="#F39220" transform="translate(0,0)"/>
<path d="" fill="#F59323" transform="translate(0,0)"/>
<path d="" fill="#FF961E" transform="translate(0,0)"/>
<path d="" fill="#F99420" transform="translate(0,0)"/>
<path d="" fill="#FF961B" transform="translate(0,0)"/>
<path d="" fill="#FF9319" transform="translate(0,0)"/>
<path d="" fill="#FD931D" transform="translate(0,0)"/>
<path d="" fill="#FE9015" transform="translate(0,0)"/>
<path d="" fill="#FC8D16" transform="translate(0,0)"/>
<path d="" fill="#FF911B" transform="translate(0,0)"/>
<path d="" fill="#FF9216" transform="translate(0,0)"/>
<path d="" fill="#F79321" transform="translate(0,0)"/>
<path d="" fill="#F49323" transform="translate(0,0)"/>
<path d="" fill="#FE931B" transform="translate(0,0)"/>
<path d="" fill="#F49320" transform="translate(0,0)"/>
<path d="" fill="#FA9524" transform="translate(0,0)"/>
<path d="" fill="#FB9724" transform="translate(0,0)"/>
<path d="" fill="#FE931B" transform="translate(0,0)"/>
<path d="" fill="#FE931A" transform="translate(0,0)"/>
<path d="" fill="#F49326" transform="translate(0,0)"/>
<path d="" fill="#FC9119" transform="translate(0,0)"/>
<path d="" fill="#EF9225" transform="translate(0,0)"/>
<path d="" fill="#FD9316" transform="translate(0,0)"/>
<path d="" fill="#F99019" transform="translate(0,0)"/>
<path d="" fill="#FE9319" transform="translate(0,0)"/>
<path d="" fill="#FC931C" transform="translate(0,0)"/>
<path d="" fill="#FD941B" transform="translate(0,0)"/>
<path d="" fill="#FC941B" transform="translate(0,0)"/>
<path d="" fill="#FE931A" transform="translate(0,0)"/>
<path d="" fill="#FB911A" transform="translate(0,0)"/>
<path d="" fill="#FF8E14" transform="translate(0,0)"/>
<path d="" fill="#FF8E13" transform="translate(0,0)"/>
<path d="" fill="#FA961D" transform="translate(0,0)"/>
<path d="" fill="#FF931C" transform="translate(0,0)"/>
<path d="" fill="#F0901E" transform="translate(0,0)"/>
<path d="" fill="#FF8F14" transform="translate(0,0)"/>
<path d="" fill="#FC931D" transform="translate(0,0)"/>
<path d="" fill="#FE9219" transform="translate(0,0)"/>
<path d="" fill="#F19020" transform="translate(0,0)"/>
<path d="" fill="#FE8E15" transform="translate(0,0)"/>
<path d="" fill="#FD941B" transform="translate(0,0)"/>
<path d="" fill="#FF951C" transform="translate(0,0)"/>
<path d="" fill="#FF941A" transform="translate(0,0)"/>
<path d="" fill="#FF9217" transform="translate(0,0)"/>
<path d="" fill="#F49421" transform="translate(0,0)"/>
<path d="" fill="#FE9116" transform="translate(0,0)"/>
<path d="" fill="#F38D19" transform="translate(0,0)"/>
<path d="" fill="#F39222" transform="translate(0,0)"/>
<path d="" fill="#F58B1B" transform="translate(0,0)"/>
<path d="" fill="#F4911F" transform="translate(0,0)"/>
<path d="" fill="#F49426" transform="translate(0,0)"/>
<path d="" fill="#F29426" transform="translate(0,0)"/>
<path d="" fill="#F6901C" transform="translate(0,0)"/>
<path d="" fill="#F59424" transform="translate(0,0)"/>
<path d="" fill="#F7921B" transform="translate(0,0)"/>
<path d="" fill="#FF9218" transform="translate(0,0)"/>
<path d="" fill="#F8931F" transform="translate(0,0)"/>
<path d="" fill="#F49423" transform="translate(0,0)"/>
<path d="" fill="#F7911C" transform="translate(0,0)"/>
<path d="" fill="#FF9218" transform="translate(0,0)"/>
<path d="" fill="#F79321" transform="translate(0,0)"/>
<path d="" fill="#F2901D" transform="translate(0,0)"/>
<path d="" fill="#F6921E" transform="translate(0,0)"/>
<path d="" fill="#FF941A" transform="translate(0,0)"/>
<path d="" fill="#FF9219" transform="translate(0,0)"/>
<path d="" fill="#FA9320" transform="translate(0,0)"/>
<path d="" fill="#F8921E" transform="translate(0,0)"/>
<path d="" fill="#FF931B" transform="translate(0,0)"/>
<path d="" fill="#F9941C" transform="translate(0,0)"/>
<path d="" fill="#FA9521" transform="translate(0,0)"/>
<path d="" fill="#FA931C" transform="translate(0,0)"/>
<path d="" fill="#FA931C" transform="translate(0,0)"/>
<path d="" fill="#FD931A" transform="translate(0,0)"/>
</svg>
